<?xml version="1.0" encoding="UTF-8"?><svg xmlns="http://www.w3.org/2000/svg" xmlns:xlink="http://www.w3.org/1999/xlink" fill-opacity="1" color-rendering="auto" color-interpolation="auto" text-rendering="auto" stroke="black" stroke-linecap="square" width="180" stroke-miterlimit="10" shape-rendering="auto" stroke-opacity="1" fill="black" stroke-dasharray="none" font-weight="normal" stroke-width="1" height="120" font-family="'Dialog'" font-style="normal" stroke-linejoin="miter" font-size="12" stroke-dashoffset="0" image-rendering="auto">
  <!--Generated by ySVG 2.5-->
  <defs id="genericDefs"/>
  <g>
    <defs id="defs1">
      <clipPath clipPathUnits="userSpaceOnUse" id="clipPath1">
        <path d="M0 0 L180 0 L180 120 L0 120 L0 0 Z"/>
      </clipPath>
      <clipPath clipPathUnits="userSpaceOnUse" id="clipPath2">
        <path d="M60 30 L240 30 L240 150 L60 150 L60 30 Z"/>
      </clipPath>
    </defs>
    <g text-rendering="geometricPrecision" stroke-miterlimit="1.45" shape-rendering="geometricPrecision" font-family="sans-serif" transform="matrix(1,0,0,1,-60,-30)" stroke-linecap="butt">
      <text x="86.874" xml:space="preserve" y="94.1543" clip-path="url(#clipPath2)" stroke="none">s</text>
    </g>
    <g text-rendering="geometricPrecision" stroke-miterlimit="1.45" shape-rendering="geometricPrecision" transform="matrix(1,0,0,1,-60,-30)" stroke-linecap="butt">
      <circle fill="none" r="15" clip-path="url(#clipPath2)" cx="90" cy="90"/>
      <text x="146.4492" xml:space="preserve" y="64.1543" clip-path="url(#clipPath2)" font-family="sans-serif" stroke="none">v</text>
      <circle fill="none" r="15" clip-path="url(#clipPath2)" cx="150" cy="60"/>
      <text x="145.0928" xml:space="preserve" y="124.1543" clip-path="url(#clipPath2)" font-family="sans-serif" stroke="none">w</text>
      <circle fill="none" r="15" clip-path="url(#clipPath2)" cx="150" cy="120"/>
      <text x="207.6475" xml:space="preserve" y="94.1543" clip-path="url(#clipPath2)" font-family="sans-serif" stroke="none">t</text>
      <circle fill="none" r="15" clip-path="url(#clipPath2)" cx="210" cy="90"/>
      <path fill="none" d="M103.4164 83.2918 L129.4282 70.2859" clip-path="url(#clipPath2)"/>
      <path d="M136.5836 66.7082 L123.6144 67.6026 L128.5337 70.7331 L128.0865 76.5469 Z" clip-path="url(#clipPath2)" stroke="none"/>
      <path fill="none" d="M103.4164 96.7082 L129.4282 109.7141" clip-path="url(#clipPath2)"/>
      <path d="M136.5836 113.2918 L128.0865 103.4531 L128.5337 109.2669 L123.6144 112.3974 Z" clip-path="url(#clipPath2)" stroke="none"/>
      <path fill="none" d="M163.4164 66.7082 L189.4282 79.7141" clip-path="url(#clipPath2)"/>
      <path d="M196.5836 83.2918 L188.0865 73.4531 L188.5337 79.2669 L183.6144 82.3974 Z" clip-path="url(#clipPath2)" stroke="none"/>
      <path fill="none" d="M163.4164 113.2918 L189.4282 100.2859" clip-path="url(#clipPath2)"/>
      <path d="M196.5836 96.7082 L183.6144 97.6026 L188.5337 100.7331 L188.0865 106.5469 Z" clip-path="url(#clipPath2)" stroke="none"/>
    </g>
  </g>
</svg>
