<?xml version="1.0" encoding="UTF-8"?><svg xmlns="http://www.w3.org/2000/svg" xmlns:xlink="http://www.w3.org/1999/xlink" fill-opacity="1" color-rendering="auto" color-interpolation="auto" text-rendering="auto" stroke="black" stroke-linecap="square" width="490" stroke-miterlimit="10" shape-rendering="auto" stroke-opacity="1" fill="black" stroke-dasharray="none" font-weight="normal" stroke-width="1" height="362" font-family="'Dialog'" font-style="normal" stroke-linejoin="miter" font-size="12" stroke-dashoffset="0" image-rendering="auto">
  <!--Generated by ySVG 2.5-->
  <defs id="genericDefs"/>
  <g>
    <defs id="defs1">
      <clipPath clipPathUnits="userSpaceOnUse" id="clipPath1">
        <path d="M0 0 L490 0 L490 362 L0 362 L0 0 Z"/>
      </clipPath>
      <clipPath clipPathUnits="userSpaceOnUse" id="clipPath2">
        <path d="M265 76 L755 76 L755 438 L265 438 L265 76 Z"/>
      </clipPath>
    </defs>
    <g fill="white" text-rendering="geometricPrecision" shape-rendering="geometricPrecision" transform="translate(-265,-76)" stroke="white">
      <rect x="265" width="490" height="362" y="76" clip-path="url(#clipPath2)" stroke="none"/>
    </g>
    <g text-rendering="geometricPrecision" stroke-miterlimit="1.45" shape-rendering="geometricPrecision" font-family="sans-serif" transform="matrix(1,0,0,1,-265,-76)" stroke-linecap="butt">
      <text x="293.7158" xml:space="preserve" y="184.1543" clip-path="url(#clipPath2)" stroke="none">r1</text>
      <circle fill="none" r="19.5" clip-path="url(#clipPath2)" cx="300" cy="180"/>
      <text x="441.2754" xml:space="preserve" y="184.1543" clip-path="url(#clipPath2)" stroke="none">w1</text>
      <circle fill="none" r="19.5" clip-path="url(#clipPath2)" cx="450" cy="180"/>
      <text x="366.6709" xml:space="preserve" y="115.1543" clip-path="url(#clipPath2)" stroke="none">H1</text>
      <circle fill="none" r="19.5" clip-path="url(#clipPath2)" cx="375" cy="111"/>
      <text x="563.7158" xml:space="preserve" y="184.1543" clip-path="url(#clipPath2)" stroke="none">r2</text>
      <circle fill="none" r="19.5" clip-path="url(#clipPath2)" cx="570" cy="180"/>
      <text x="711.2754" xml:space="preserve" y="184.1543" clip-path="url(#clipPath2)" stroke="none">w2</text>
      <circle fill="none" r="19.5" clip-path="url(#clipPath2)" cx="720" cy="180"/>
      <text x="636.6709" xml:space="preserve" y="115.1543" clip-path="url(#clipPath2)" stroke="none">H2</text>
      <circle fill="none" r="19.5" clip-path="url(#clipPath2)" cx="645" cy="111"/>
      <text x="367.0723" xml:space="preserve" y="184.1543" clip-path="url(#clipPath2)" stroke="none">X1</text>
      <circle fill="none" r="20" clip-path="url(#clipPath2)" cx="375" cy="180"/>
      <text x="637.0723" xml:space="preserve" y="184.1543" clip-path="url(#clipPath2)" stroke="none">X2</text>
      <circle fill="none" r="20" clip-path="url(#clipPath2)" cx="645" cy="180"/>
      <text x="328.291" xml:space="preserve" y="244.1543" clip-path="url(#clipPath2)" stroke="none">U1</text>
      <circle fill="none" r="21.5" clip-path="url(#clipPath2)" cx="336.5" cy="240"/>
      <text x="600.291" xml:space="preserve" y="244.1543" clip-path="url(#clipPath2)" stroke="none">U2</text>
      <circle fill="none" r="21.5" clip-path="url(#clipPath2)" cx="608.5" cy="240"/>
      <text x="621.7998" xml:space="preserve" y="405.6543" clip-path="url(#clipPath2)" stroke="none">Up</text>
      <circle fill="none" r="21.5" clip-path="url(#clipPath2)" cx="630" cy="401.5"/>
      <text x="625.8105" xml:space="preserve" y="332.6543" clip-path="url(#clipPath2)" stroke="none">C</text>
      <circle fill="none" r="21.5" clip-path="url(#clipPath2)" cx="630" cy="328.5"/>
      <path fill="none" d="M360.6494 124.2026 L320.2381 161.381" clip-path="url(#clipPath2)"/>
      <path d="M314.3506 166.7974 L326.5671 162.3524 L320.974 160.7039 L319.7965 154.9931 Z" clip-path="url(#clipPath2)" stroke="none"/>
      <path fill="none" d="M389.3506 124.2026 L429.7619 161.381" clip-path="url(#clipPath2)"/>
      <path d="M435.6494 166.7974 L430.2035 154.9931 L429.026 160.7039 L423.4329 162.3524 Z" clip-path="url(#clipPath2)" stroke="none"/>
      <path fill="none" d="M394.5 111 L617.5 111" clip-path="url(#clipPath2)"/>
      <path d="M625.5 111 L613.5 106 L616.5 111 L613.5 116 Z" clip-path="url(#clipPath2)" stroke="none"/>
      <path fill="none" d="M630.6494 124.2026 L590.2381 161.381" clip-path="url(#clipPath2)"/>
      <path d="M584.3506 166.7974 L596.5671 162.3524 L590.9741 160.7039 L589.7966 154.9931 Z" clip-path="url(#clipPath2)" stroke="none"/>
      <path fill="none" d="M659.3506 124.2026 L699.7619 161.381" clip-path="url(#clipPath2)"/>
      <path d="M705.6494 166.7974 L700.2034 154.9931 L699.0259 160.7039 L693.4329 162.3524 Z" clip-path="url(#clipPath2)" stroke="none"/>
      <path fill="none" d="M310.1346 196.6595 L321.1682 214.7971" clip-path="url(#clipPath2)"/>
      <path d="M325.326 221.6318 L323.3611 208.7811 L320.6485 213.9427 L314.8177 213.9783 Z" clip-path="url(#clipPath2)" stroke="none"/>
      <path fill="none" d="M364.199 196.8327 L352.4314 215.1718" clip-path="url(#clipPath2)"/>
      <path d="M348.1111 221.9049 L358.7998 214.5055 L352.9715 214.3302 L350.3835 209.105 Z" clip-path="url(#clipPath2)" stroke="none"/>
      <path fill="none" d="M580.5309 196.4119 L592.5685 215.1718" clip-path="url(#clipPath2)"/>
      <path d="M596.889 221.9048 L594.6165 209.105 L592.0285 214.3302 L586.2002 214.5055 Z" clip-path="url(#clipPath2)" stroke="none"/>
      <path fill="none" d="M634.6056 197.0867 L623.8318 214.7971" clip-path="url(#clipPath2)"/>
      <path d="M619.674 221.6318 L630.1824 213.9784 L624.3515 213.9427 L621.639 208.7811 Z" clip-path="url(#clipPath2)" stroke="none"/>
      <path fill="none" d="M392.283 190.0648 L604.5076 313.6544" clip-path="url(#clipPath2)"/>
      <path d="M611.4208 317.6804 L603.5673 307.3208 L603.6435 313.1512 L598.5349 315.9622 Z" clip-path="url(#clipPath2)" stroke="none"/>
      <path fill="none" d="M465.0418 192.4095 L607.2445 309.7267" clip-path="url(#clipPath2)"/>
      <path d="M613.4155 314.8178 L607.3409 303.3243 L606.4731 309.0903 L600.9771 311.038 Z" clip-path="url(#clipPath2)" stroke="none"/>
      <path fill="none" d="M642.9901 199.8987 L632.9647 299.1494" clip-path="url(#clipPath2)"/>
      <path d="M632.1607 307.1089 L638.3414 295.6721 L633.0652 298.1544 L628.392 294.6671 Z" clip-path="url(#clipPath2)" stroke="none"/>
      <path fill="none" d="M709.8931 196.6764 L645.2899 303.2717" clip-path="url(#clipPath2)"/>
      <path d="M641.1435 310.1133 L651.6391 302.4424 L645.8082 302.4165 L643.0872 297.2594 Z" clip-path="url(#clipPath2)" stroke="none"/>
      <path fill="none" d="M630 350 L630 372" clip-path="url(#clipPath2)"/>
      <path d="M630 380 L635 368 L630 371 L625 368 Z" clip-path="url(#clipPath2)" stroke="none"/>
    </g>
  </g>
</svg>
