<?xml version="1.0" encoding="UTF-8"?><svg xmlns="http://www.w3.org/2000/svg" xmlns:xlink="http://www.w3.org/1999/xlink" fill-opacity="1" color-rendering="auto" color-interpolation="auto" text-rendering="auto" stroke="black" stroke-linecap="square" width="490" stroke-miterlimit="10" shape-rendering="auto" stroke-opacity="1" fill="black" stroke-dasharray="none" font-weight="normal" stroke-width="1" height="362" font-family="'Dialog'" font-style="normal" stroke-linejoin="miter" font-size="12" stroke-dashoffset="0" image-rendering="auto">
  <!--Generated by ySVG 2.5-->
  <defs id="genericDefs"/>
  <g>
    <defs id="defs1">
      <clipPath clipPathUnits="userSpaceOnUse" id="clipPath1">
        <path d="M0 0 L490 0 L490 362 L0 362 L0 0 Z"/>
      </clipPath>
      <clipPath clipPathUnits="userSpaceOnUse" id="clipPath2">
        <path d="M265 76 L755 76 L755 438 L265 438 L265 76 Z"/>
      </clipPath>
    </defs>
    <g fill="white" text-rendering="geometricPrecision" shape-rendering="geometricPrecision" transform="translate(-265,-76)" stroke="white">
      <rect x="265" width="490" height="362" y="76" clip-path="url(#clipPath2)" stroke="none"/>
    </g>
    <g text-rendering="geometricPrecision" stroke-miterlimit="1.45" shape-rendering="geometricPrecision" font-family="sans-serif" transform="matrix(1,0,0,1,-265,-76)" stroke-linecap="butt">
      <text x="293.7158" xml:space="preserve" y="184.1543" clip-path="url(#clipPath2)" stroke="none">r1</text>
      <circle fill="none" r="19.5" clip-path="url(#clipPath2)" cx="300" cy="180"/>
      <text x="441.2754" xml:space="preserve" y="184.1543" clip-path="url(#clipPath2)" stroke="none">w1</text>
      <circle fill="none" r="19.5" clip-path="url(#clipPath2)" cx="450" cy="180"/>
      <text x="366.6709" xml:space="preserve" y="115.1543" clip-path="url(#clipPath2)" stroke="none">H1</text>
      <circle fill="none" r="19.5" clip-path="url(#clipPath2)" cx="375" cy="111"/>
      <text x="563.7158" xml:space="preserve" y="184.1543" clip-path="url(#clipPath2)" stroke="none">r2</text>
      <circle fill="none" r="19.5" clip-path="url(#clipPath2)" cx="570" cy="180"/>
      <text x="711.2754" xml:space="preserve" y="184.1543" clip-path="url(#clipPath2)" stroke="none">w2</text>
      <circle fill="none" r="19.5" clip-path="url(#clipPath2)" cx="720" cy="180"/>
      <text x="636.6709" xml:space="preserve" y="115.1543" clip-path="url(#clipPath2)" stroke="none">H2</text>
      <circle fill="none" r="19.5" clip-path="url(#clipPath2)" cx="645" cy="111"/>
      <text x="367.0723" xml:space="preserve" y="184.1543" clip-path="url(#clipPath2)" stroke="none">X1</text>
      <circle fill="none" r="20" clip-path="url(#clipPath2)" cx="375" cy="180"/>
      <text x="637.0723" xml:space="preserve" y="184.1543" clip-path="url(#clipPath2)" stroke="none">X2</text>
      <circle fill="none" r="20" clip-path="url(#clipPath2)" cx="645" cy="180"/>
      <text x="328.291" xml:space="preserve" y="244.1543" clip-path="url(#clipPath2)" stroke="none">U1</text>
      <circle fill="none" r="21.5" clip-path="url(#clipPath2)" cx="336.5" cy="240"/>
      <text x="600.291" xml:space="preserve" y="244.1543" clip-path="url(#clipPath2)" stroke="none">U2</text>
      <circle fill="none" r="21.5" clip-path="url(#clipPath2)" cx="608.5" cy="240"/>
      <text x="621.7998" xml:space="preserve" y="405.6543" clip-path="url(#clipPath2)" stroke="none">Up</text>
      <circle fill="none" r="21.5" clip-path="url(#clipPath2)" cx="630" cy="401.5"/>
      <text x="627.3105" xml:space="preserve" y="334.1543" clip-path="url(#clipPath2)" stroke="none">C</text>
      <circle fill="none" r="20" clip-path="url(#clipPath2)" cx="631.5" cy="330"/>
      <path fill="none" d="M360.6494 124.2026 L314.3506 166.7974" clip-path="url(#clipPath2)"/>
      <path fill="none" d="M389.3506 124.2026 L435.6494 166.7974" clip-path="url(#clipPath2)"/>
      <path fill="none" d="M467.8009 187.961 L483.75 195.0938 L500.625 201.0234 L517.5 205.875 L534.375 209.6484 L551.25 212.3438 L568.125 213.9609 L585 214.5 L601.875 213.9609 L618.75 212.3438 L635.625 209.6484 L652.5 205.875 L669.375 201.0234 L686.25 195.0938 L702.1991 187.961" clip-path="url(#clipPath2)"/>
      <path fill="none" d="M394.5 111 L625.5 111" clip-path="url(#clipPath2)"/>
      <path fill="none" d="M659.3506 124.2026 L705.6494 166.7974" clip-path="url(#clipPath2)"/>
      <path fill="none" d="M630.6494 124.2026 L584.3506 166.7974" clip-path="url(#clipPath2)"/>
      <path fill="none" d="M319.5 180 L355 180" clip-path="url(#clipPath2)"/>
      <path fill="none" d="M395 180 L430.5 180" clip-path="url(#clipPath2)"/>
      <path fill="none" d="M392.7908 170.8629 L396.5625 168.9258 L418.125 159.3281 L439.6875 151.207 L461.25 144.5625 L482.8125 139.3945 L504.375 135.7031 L525.9375 133.4883 L547.5 132.75 L569.0625 133.4883 L590.625 135.7031 L612.1875 139.3945 L633.75 144.5625 L655.3125 151.207 L676.875 159.3281 L698.4375 168.9258 L702.6539 171.0913" clip-path="url(#clipPath2)"/>
      <path fill="none" d="M589.5 180 L625 180" clip-path="url(#clipPath2)"/>
      <path fill="none" d="M392.8967 170.9964 L408.75 164.0312 L425.625 157.7578 L442.5 152.625 L459.375 148.6328 L476.25 145.7812 L493.125 144.0703 L510 143.5 L526.875 144.0703 L543.75 145.7812 L560.625 148.6328 L577.5 152.625 L594.375 157.7578 L611.25 164.0312 L627.1033 170.9964" clip-path="url(#clipPath2)"/>
      <path fill="none" d="M467.392 188.8186 L474.375 192.3594 L498.75 201.1875 L523.125 206.4844 L547.5 208.25 L571.875 206.4844 L596.25 201.1875 L620.625 192.3594 L627.162 189.0448" clip-path="url(#clipPath2)"/>
      <path fill="none" d="M665 180 L700.5 180" clip-path="url(#clipPath2)"/>
      <path fill="none" d="M310.1346 196.6595 L325.326 221.6318" clip-path="url(#clipPath2)"/>
      <path fill="none" d="M364.199 196.8327 L348.1111 221.9049" clip-path="url(#clipPath2)"/>
      <path fill="none" d="M580.5309 196.4119 L596.889 221.9049" clip-path="url(#clipPath2)"/>
      <path fill="none" d="M634.6056 197.0867 L619.674 221.6318" clip-path="url(#clipPath2)"/>
      <path fill="none" d="M392.2646 190.0963 L614.2354 319.9037" clip-path="url(#clipPath2)"/>
      <path fill="none" d="M465.0311 192.4224 L616.0835 317.2591" clip-path="url(#clipPath2)"/>
      <path fill="none" d="M643.2073 199.9195 L633.2927 310.0805" clip-path="url(#clipPath2)"/>
      <path fill="none" d="M710.0911 196.7948 L641.663 312.7746" clip-path="url(#clipPath2)"/>
      <path fill="none" d="M631.0805 349.9956 L630.4509 380.0047" clip-path="url(#clipPath2)"/>
    </g>
  </g>
</svg>
