<?xml version="1.0" encoding="UTF-8" standalone="no"?>
<svg
   xmlns:dc="http://purl.org/dc/elements/1.1/"
   xmlns:cc="http://creativecommons.org/ns#"
   xmlns:rdf="http://www.w3.org/1999/02/22-rdf-syntax-ns#"
   xmlns:svg="http://www.w3.org/2000/svg"
   xmlns="http://www.w3.org/2000/svg"
   xmlns:sodipodi="http://sodipodi.sourceforge.net/DTD/sodipodi-0.dtd"
   xmlns:inkscape="http://www.inkscape.org/namespaces/inkscape"
   color-rendering="auto"
   color-interpolation="auto"
   text-rendering="auto"
   width="497.7731"
   stroke-miterlimit="10"
   shape-rendering="auto"
   font-weight="normal"
   height="383.14807"
   font-style="normal"
   font-size="12"
   image-rendering="auto"
   id="svg3379"
   version="1.1"
   inkscape:version="0.48.4 r9939"
   sodipodi:docname="clusters2.svg"
   style="font-size:12px;font-style:normal;font-weight:normal;fill:#000000;fill-opacity:1;stroke:#000000;stroke-width:1;stroke-linecap:square;stroke-linejoin:miter;stroke-miterlimit:10;stroke-opacity:1;stroke-dasharray:none;stroke-dashoffset:0;font-family:Dialog">
  <metadata
     id="metadata3499">
    <rdf:RDF>
      <cc:Work
         rdf:about="">
        <dc:format>image/svg+xml</dc:format>
        <dc:type
           rdf:resource="http://purl.org/dc/dcmitype/StillImage" />
        <dc:title />
      </cc:Work>
    </rdf:RDF>
  </metadata>
  <sodipodi:namedview
     pagecolor="#ffffff"
     bordercolor="#666666"
     borderopacity="1"
     objecttolerance="10"
     gridtolerance="10"
     guidetolerance="10"
     inkscape:pageopacity="0"
     inkscape:pageshadow="2"
     inkscape:window-width="1920"
     inkscape:window-height="1025"
     id="namedview3497"
     showgrid="false"
     inkscape:zoom="2.3618785"
     inkscape:cx="254.04399"
     inkscape:cy="214.87135"
     inkscape:window-x="0"
     inkscape:window-y="27"
     inkscape:window-maximized="1"
     inkscape:current-layer="svg3379"
     fit-margin-top="0"
     fit-margin-left="0"
     fit-margin-right="0"
     fit-margin-bottom="0" />
  <!--Generated by ySVG 2.5-->
  <defs
     id="genericDefs" />
  <g
     id="g3382"
     transform="translate(7.7730912,21.148057)">
    <defs
       id="defs1">
      <clipPath
         clipPathUnits="userSpaceOnUse"
         id="clipPath1">
        <path
           d="M 0,0 490,0 490,362 0,362 0,0 z"
           id="path3386"
           inkscape:connector-curvature="0" />
      </clipPath>
      <clipPath
         clipPathUnits="userSpaceOnUse"
         id="clipPath2">
        <path
           d="m 265,76 490,0 0,362 -490,0 0,-362 z"
           id="path3389"
           inkscape:connector-curvature="0" />
      </clipPath>
    </defs>
    <g
       text-rendering="geometricPrecision"
       shape-rendering="geometricPrecision"
       transform="translate(-265,-76)"
       id="g3391"
       style="fill:#ffffff;stroke:#ffffff">
      <rect
         x="265"
         width="490"
         height="362"
         y="76"
         clip-path="url(#clipPath2)"
         id="rect3393"
         style="stroke:none" />
    </g>
    <g
       text-rendering="geometricPrecision"
       stroke-miterlimit="1.45"
       shape-rendering="geometricPrecision"
       transform="translate(-265,-76)"
       id="g3395"
       style="stroke-linecap:butt;stroke-miterlimit:1.45000005;font-family:sans-serif">
      <text
         x="293.71579"
         xml:space="preserve"
         y="184.1543"
         clip-path="url(#clipPath2)"
         id="text3397"
         style="stroke:none">r1</text>
      <circle
         r="19.5"
         clip-path="url(#clipPath2)"
         cx="300"
         cy="180"
         id="circle3399"
         d="m 319.5,180 c 0,10.76955 -8.73045,19.5 -19.5,19.5 -10.76955,0 -19.5,-8.73045 -19.5,-19.5 0,-10.76955 8.73045,-19.5 19.5,-19.5 10.76955,0 19.5,8.73045 19.5,19.5 z"
         sodipodi:cx="300"
         sodipodi:cy="180"
         sodipodi:rx="19.5"
         sodipodi:ry="19.5"
         style="fill:none" />
      <text
         x="441.27539"
         xml:space="preserve"
         y="184.1543"
         clip-path="url(#clipPath2)"
         id="text3401"
         style="stroke:none">w1</text>
      <circle
         r="19.5"
         clip-path="url(#clipPath2)"
         cx="450"
         cy="180"
         id="circle3403"
         d="m 469.5,180 c 0,10.76955 -8.73045,19.5 -19.5,19.5 -10.76955,0 -19.5,-8.73045 -19.5,-19.5 0,-10.76955 8.73045,-19.5 19.5,-19.5 10.76955,0 19.5,8.73045 19.5,19.5 z"
         sodipodi:cx="450"
         sodipodi:cy="180"
         sodipodi:rx="19.5"
         sodipodi:ry="19.5"
         style="fill:none" />
      <text
         x="366.6709"
         xml:space="preserve"
         y="115.1543"
         clip-path="url(#clipPath2)"
         id="text3405"
         style="stroke:none">H1</text>
      <circle
         r="19.5"
         clip-path="url(#clipPath2)"
         cx="375"
         cy="111"
         id="circle3407"
         d="m 394.5,111 c 0,10.76955 -8.73045,19.5 -19.5,19.5 -10.76955,0 -19.5,-8.73045 -19.5,-19.5 0,-10.76955 8.73045,-19.5 19.5,-19.5 10.76955,0 19.5,8.73045 19.5,19.5 z"
         sodipodi:cx="375"
         sodipodi:cy="111"
         sodipodi:rx="19.5"
         sodipodi:ry="19.5"
         style="fill:none" />
      <text
         x="563.71582"
         xml:space="preserve"
         y="184.1543"
         clip-path="url(#clipPath2)"
         id="text3409"
         style="stroke:none">r2</text>
      <circle
         r="19.5"
         clip-path="url(#clipPath2)"
         cx="570"
         cy="180"
         id="circle3411"
         d="m 589.5,180 c 0,10.76955 -8.73045,19.5 -19.5,19.5 -10.76955,0 -19.5,-8.73045 -19.5,-19.5 0,-10.76955 8.73045,-19.5 19.5,-19.5 10.76955,0 19.5,8.73045 19.5,19.5 z"
         sodipodi:cx="570"
         sodipodi:cy="180"
         sodipodi:rx="19.5"
         sodipodi:ry="19.5"
         style="fill:none" />
      <text
         x="711.27539"
         xml:space="preserve"
         y="184.1543"
         clip-path="url(#clipPath2)"
         id="text3413"
         style="stroke:none">w2</text>
      <circle
         r="19.5"
         clip-path="url(#clipPath2)"
         cx="720"
         cy="180"
         id="circle3415"
         d="m 739.5,180 c 0,10.76955 -8.73045,19.5 -19.5,19.5 -10.76955,0 -19.5,-8.73045 -19.5,-19.5 0,-10.76955 8.73045,-19.5 19.5,-19.5 10.76955,0 19.5,8.73045 19.5,19.5 z"
         sodipodi:cx="720"
         sodipodi:cy="180"
         sodipodi:rx="19.5"
         sodipodi:ry="19.5"
         style="fill:none" />
      <text
         x="636.6709"
         xml:space="preserve"
         y="115.1543"
         clip-path="url(#clipPath2)"
         id="text3417"
         style="stroke:none">H2</text>
      <circle
         r="19.5"
         clip-path="url(#clipPath2)"
         cx="645"
         cy="111"
         id="circle3419"
         d="m 664.5,111 c 0,10.76955 -8.73045,19.5 -19.5,19.5 -10.76955,0 -19.5,-8.73045 -19.5,-19.5 0,-10.76955 8.73045,-19.5 19.5,-19.5 10.76955,0 19.5,8.73045 19.5,19.5 z"
         sodipodi:cx="645"
         sodipodi:cy="111"
         sodipodi:rx="19.5"
         sodipodi:ry="19.5"
         style="fill:none" />
      <text
         x="367.0723"
         xml:space="preserve"
         y="184.1543"
         clip-path="url(#clipPath2)"
         id="text3421"
         style="stroke:none">X1</text>
      <circle
         r="20"
         clip-path="url(#clipPath2)"
         cx="375"
         cy="180"
         id="circle3423"
         d="m 395,180 c 0,11.04569 -8.95431,20 -20,20 -11.04569,0 -20,-8.95431 -20,-20 0,-11.04569 8.95431,-20 20,-20 11.04569,0 20,8.95431 20,20 z"
         sodipodi:cx="375"
         sodipodi:cy="180"
         sodipodi:rx="20"
         sodipodi:ry="20"
         style="fill:none" />
      <text
         x="637.07233"
         xml:space="preserve"
         y="184.1543"
         clip-path="url(#clipPath2)"
         id="text3425"
         style="stroke:none">X2</text>
      <circle
         r="20"
         clip-path="url(#clipPath2)"
         cx="645"
         cy="180"
         id="circle3427"
         d="m 665,180 c 0,11.04569 -8.95431,20 -20,20 -11.04569,0 -20,-8.95431 -20,-20 0,-11.04569 8.95431,-20 20,-20 11.04569,0 20,8.95431 20,20 z"
         sodipodi:cx="645"
         sodipodi:cy="180"
         sodipodi:rx="20"
         sodipodi:ry="20"
         style="fill:none" />
      <text
         x="328.29099"
         xml:space="preserve"
         y="244.1543"
         clip-path="url(#clipPath2)"
         id="text3429"
         style="stroke:none">U1</text>
      <circle
         r="21.5"
         clip-path="url(#clipPath2)"
         cx="336.5"
         cy="240"
         id="circle3431"
         d="m 358,240 c 0,11.87412 -9.62588,21.5 -21.5,21.5 -11.87412,0 -21.5,-9.62588 -21.5,-21.5 0,-11.87412 9.62588,-21.5 21.5,-21.5 11.87412,0 21.5,9.62588 21.5,21.5 z"
         sodipodi:cx="336.5"
         sodipodi:cy="240"
         sodipodi:rx="21.5"
         sodipodi:ry="21.5"
         style="fill:none" />
      <text
         x="600.29102"
         xml:space="preserve"
         y="244.1543"
         clip-path="url(#clipPath2)"
         id="text3433"
         style="stroke:none">U2</text>
      <circle
         r="21.5"
         clip-path="url(#clipPath2)"
         cx="608.5"
         cy="240"
         id="circle3435"
         d="m 630,240 c 0,11.87412 -9.62588,21.5 -21.5,21.5 -11.87412,0 -21.5,-9.62588 -21.5,-21.5 0,-11.87412 9.62588,-21.5 21.5,-21.5 11.87412,0 21.5,9.62588 21.5,21.5 z"
         sodipodi:cx="608.5"
         sodipodi:cy="240"
         sodipodi:rx="21.5"
         sodipodi:ry="21.5"
         style="fill:none" />
      <text
         x="621.7998"
         xml:space="preserve"
         y="405.6543"
         clip-path="url(#clipPath2)"
         id="text3437"
         style="stroke:none">Up</text>
      <circle
         r="21.5"
         clip-path="url(#clipPath2)"
         cx="630"
         cy="401.5"
         id="circle3439"
         d="m 651.5,401.5 c 0,11.87412 -9.62588,21.5 -21.5,21.5 -11.87412,0 -21.5,-9.62588 -21.5,-21.5 0,-11.87412 9.62588,-21.5 21.5,-21.5 11.87412,0 21.5,9.62588 21.5,21.5 z"
         sodipodi:cx="630"
         sodipodi:cy="401.5"
         sodipodi:rx="21.5"
         sodipodi:ry="21.5"
         style="fill:none" />
      <text
         x="627.31049"
         xml:space="preserve"
         y="334.1543"
         clip-path="url(#clipPath2)"
         id="text3441"
         style="stroke:none">C</text>
      <circle
         r="20"
         clip-path="url(#clipPath2)"
         cx="631.5"
         cy="330"
         id="circle3443"
         d="m 651.5,330 c 0,11.04569 -8.95431,20 -20,20 -11.04569,0 -20,-8.95431 -20,-20 0,-11.04569 8.95431,-20 20,-20 11.04569,0 20,8.95431 20,20 z"
         sodipodi:cx="631.5"
         sodipodi:cy="330"
         sodipodi:rx="20"
         sodipodi:ry="20"
         style="fill:none" />
    </g>
  </g>
  <path
     style="fill:none;stroke:#ff0000;stroke-width:1px;stroke-linecap:butt;stroke-linejoin:miter;stroke-opacity:1"
     d="m 405.76139,367.90596 c -15.10941,7.98145 -29.26817,17.75858 -54.19415,7.19765 -25.32242,-19.78252 -17.03366,-94.73002 -14.81871,-108.3883 3.90109,-13.75655 12.00447,-17.73558 18.99639,-22.30084 13.02254,-8.50285 28.09067,-5.3448 43.24221,3.6716 13.80519,7.89861 11.73294,28.78784 13.97192,46.14971 -2.39922,24.55673 1.93066,52.478 -7.19766,73.67018 z"
     id="path3501"
     inkscape:connector-curvature="0"
     sodipodi:nodetypes="cccsccc" />
  <path
     style="fill:none;stroke:#0000ff;stroke-width:1px;stroke-linecap:butt;stroke-linejoin:miter;stroke-opacity:1"
     d="M 88.217535,96.5118 C 133.37933,95.665016 216.34747,91.037598 223.70291,93.971449 287.06704,144.91916 320.37738,236.51336 342.67601,237.92467 l 44.45614,-11.85497 c 14.5716,-8.76341 14.81871,-31.61325 8.04444,-44.45614 -12.41949,-13.26628 -30.72652,-19.17313 -37.25847,-39.79883 -3.10106,-8.61183 -4.65731,-28.64952 7.62105,-38.52866 12.25981,-6.869014 35.56491,-1.97583 53.34737,-2.96374 22.72203,1.27017 64.61575,-2.252578 68.16608,3.81052 6.19105,7.8234 2.68148,50.80702 -0.42339,55.88772 -29.91969,48.26667 -72.72179,130.88643 -89.75906,144.8 l -51.65381,-1.69356 C 299.3698,301.32155 188.56139,208.5695 110.23391,161.29075 L 74.245605,137.15741 C 68.323133,129.87268 60.977407,97.832246 88.217535,96.5118 z"
     id="path4271"
     inkscape:connector-curvature="0"
     sodipodi:nodetypes="ccccccccccccccc" />
  <path
     style="fill:none;stroke:#008000;stroke-width:1px;stroke-linecap:butt;stroke-linejoin:miter;stroke-opacity:1"
     d="m 288.05847,93.548057 118.9731,-1.270175 c 12.45871,-1.36688 26.46578,15.516508 16.93567,43.609358 -17.10315,27.42027 -27.81471,62.03106 -52.92397,80.44445 -12.60114,4.12351 -22.57007,1.66649 -33.02457,0.42339 -15.75089,-6.35447 -41.49239,-62.66199 -62.23859,-93.99298 -3.41114,-9.39815 -2.66472,-22.4352 12.27836,-29.214043 z"
     id="path4294"
     inkscape:connector-curvature="0"
     sodipodi:nodetypes="ccccccc" />
  <path
     style="fill:none;stroke:#008000;stroke-width:1px;stroke-linecap:butt;stroke-linejoin:miter;stroke-opacity:1"
     d="M 23.015196,91.007706 134.36724,89.737531 c 33.30536,3.920182 29.22338,32.738489 24.13334,42.762579 -17.92359,28.79064 -37.44645,76.88349 -53.77076,86.37193 -13.640971,0.91297 -10.748936,2.67688 -44.456144,-0.4234 C 45.032353,211.95992 24.144241,164.39562 6.9263075,136.31063 -7.7206448,107.35663 4.8168346,94.556821 23.015196,91.007706 z"
     id="path4296"
     inkscape:connector-curvature="0"
     sodipodi:nodetypes="ccccccc" />
  <path
     style="fill:none;stroke:#800080;stroke-width:1px;stroke-linecap:butt;stroke-linejoin:miter;stroke-opacity:1"
     d="m 88.640927,40.62408 c 8.001162,-7.367646 15.784793,-8.529434 30.484203,-11.431579 5.80355,-2.086513 20.45978,1.909324 25.8269,6.77427 2.69136,5.67256 14.60368,114.360809 -0.84678,113.045609 -14.25419,11.9961 -116.605536,1.64345 -122.360229,-1.69356 C 16.304159,141.5844 14.138575,129.43254 14.54736,118.10478 13.946106,96.644202 56.039757,70.684899 88.640927,40.62408 z"
     id="path4298"
     inkscape:connector-curvature="0"
     sodipodi:nodetypes="ccccccc" />
  <path
     style="fill:none;stroke:#d40000;stroke-width:1px;stroke-linecap:butt;stroke-linejoin:miter;stroke-opacity:1"
     d="m 350.72045,35.966771 c 19.43467,-1.564845 28.16603,-6.340679 58.42807,-4.65731 18.65566,2.60582 31.42084,63.156362 30.90267,93.533399 -0.12873,7.54632 -1.07721,13.23053 -2.9588,15.70169 -6.01921,5.7057 -136.9671,44.45204 -159.19532,1.69357 0.29244,-63.14171 -0.28226,-40.50449 3.81052,-71.976613 9.37185,-19.142645 44.87953,-31.048733 69.01286,-34.294736 z"
     id="path4300"
     inkscape:connector-curvature="0"
     sodipodi:nodetypes="ccscccc" />
  <path
     style="fill:none;stroke:#ff00ff;stroke-width:1px;stroke-linecap:butt;stroke-linejoin:miter;stroke-opacity:1"
     d="m 90.334495,21.99484 c -3.246004,8.044446 -15.869591,139.61229 9.314619,138.44913 37.823006,-2.11696 97.437076,7.87223 113.469006,-6.35088 15.52437,-24.41559 17.2255,-62.654421 46.5731,-73.246787 62.80312,-1.270176 180.92836,6.398281 188.40936,-3.810527 10.44366,-7.315188 7.76218,-58.145809 -0.4234,-70.7064322 C 445.28647,-8.0354382 97.714663,6.8282688 90.334495,21.99484 z"
     id="path4302"
     inkscape:connector-curvature="0"
     sodipodi:nodetypes="ccccccc" />
  <path
     style="fill:none;stroke:#ffff00;stroke-width:1px;stroke-linecap:butt;stroke-linejoin:miter;stroke-opacity:1"
     d="m 480.70175,91.431098 c 5.50409,5.927486 6.75132,38.543952 6.35087,48.266672 -12.13723,15.97769 -17.92359,14.39532 -30.06082,20.3228 -31.01341,7.58589 -78.98584,9.52121 -103.73099,-9.31462 -18.26955,-16.50422 -2.40524,-78.120003 -18.20585,-90.182454 -11.64524,-8.618033 -103.18399,0.521302 -111.77544,8.044444 -15.94415,12.121176 -2.97719,86.60909 -12.27836,98.2269 -4.93957,8.32671 -87.73365,7.8372 -97.38012,5.92749 C 103.7419,171.31102 78.671639,131.79445 80.173091,111.33051 81.765007,99.935056 100.24308,91.91683 111.92748,82.53987 L 214.81169,58.829928 c 62.52086,-9.173489 168.59148,-31.898654 187.56257,-27.520467 25.1261,7.977321 52.21833,40.081091 78.32749,60.121637 z"
     id="path4304"
     inkscape:connector-curvature="0"
     sodipodi:nodetypes="ccccccccccccc" />
</svg>
