<?xml version="1.0" encoding="UTF-8" standalone="no"?>
<svg
   xmlns:dc="http://purl.org/dc/elements/1.1/"
   xmlns:cc="http://creativecommons.org/ns#"
   xmlns:rdf="http://www.w3.org/1999/02/22-rdf-syntax-ns#"
   xmlns:svg="http://www.w3.org/2000/svg"
   xmlns="http://www.w3.org/2000/svg"
   xmlns:sodipodi="http://sodipodi.sourceforge.net/DTD/sodipodi-0.dtd"
   xmlns:inkscape="http://www.inkscape.org/namespaces/inkscape"
   fill-opacity="1"
   color-rendering="auto"
   color-interpolation="auto"
   text-rendering="auto"
   stroke="black"
   stroke-linecap="square"
   width="490"
   stroke-miterlimit="10"
   shape-rendering="auto"
   stroke-opacity="1"
   fill="black"
   stroke-dasharray="none"
   font-weight="normal"
   stroke-width="1"
   height="362"
   font-family="'Dialog'"
   font-style="normal"
   stroke-linejoin="miter"
   font-size="12"
   stroke-dashoffset="0"
   image-rendering="auto"
   id="svg3379"
   version="1.1"
   inkscape:version="0.48.4 r9939"
   sodipodi:docname="clusters2.svg">
  <metadata
     id="metadata3499">
    <rdf:RDF>
      <cc:Work
         rdf:about="">
        <dc:format>image/svg+xml</dc:format>
        <dc:type
           rdf:resource="http://purl.org/dc/dcmitype/StillImage" />
        <dc:title></dc:title>
      </cc:Work>
    </rdf:RDF>
  </metadata>
  <sodipodi:namedview
     pagecolor="#ffffff"
     bordercolor="#666666"
     borderopacity="1"
     objecttolerance="10"
     gridtolerance="10"
     guidetolerance="10"
     inkscape:pageopacity="0"
     inkscape:pageshadow="2"
     inkscape:window-width="1920"
     inkscape:window-height="1025"
     id="namedview3497"
     showgrid="false"
     inkscape:zoom="2.3618785"
     inkscape:cx="246.2709"
     inkscape:cy="214.87135"
     inkscape:window-x="0"
     inkscape:window-y="27"
     inkscape:window-maximized="1"
     inkscape:current-layer="svg3379" />
  <!--Generated by ySVG 2.5-->
  <defs
     id="genericDefs" />
  <g
     id="g3382">
    <defs
       id="defs1">
      <clipPath
         clipPathUnits="userSpaceOnUse"
         id="clipPath1">
        <path
           d="M0 0 L490 0 L490 362 L0 362 L0 0 Z"
           id="path3386" />
      </clipPath>
      <clipPath
         clipPathUnits="userSpaceOnUse"
         id="clipPath2">
        <path
           d="M265 76 L755 76 L755 438 L265 438 L265 76 Z"
           id="path3389" />
      </clipPath>
    </defs>
    <g
       fill="white"
       text-rendering="geometricPrecision"
       shape-rendering="geometricPrecision"
       transform="translate(-265,-76)"
       stroke="white"
       id="g3391">
      <rect
         x="265"
         width="490"
         height="362"
         y="76"
         clip-path="url(#clipPath2)"
         stroke="none"
         id="rect3393" />
    </g>
    <g
       text-rendering="geometricPrecision"
       stroke-miterlimit="1.45"
       shape-rendering="geometricPrecision"
       font-family="sans-serif"
       transform="matrix(1,0,0,1,-265,-76)"
       stroke-linecap="butt"
       id="g3395">
      <text
         x="293.7158"
         xml:space="preserve"
         y="184.1543"
         clip-path="url(#clipPath2)"
         stroke="none"
         id="text3397">r1</text>
      <circle
         fill="none"
         r="19.5"
         clip-path="url(#clipPath2)"
         cx="300"
         cy="180"
         id="circle3399"
         d="m 319.5,180 c 0,10.76955 -8.73045,19.5 -19.5,19.5 -10.76955,0 -19.5,-8.73045 -19.5,-19.5 0,-10.76955 8.73045,-19.5 19.5,-19.5 10.76955,0 19.5,8.73045 19.5,19.5 z" />
      <text
         x="441.2754"
         xml:space="preserve"
         y="184.1543"
         clip-path="url(#clipPath2)"
         stroke="none"
         id="text3401">w1</text>
      <circle
         fill="none"
         r="19.5"
         clip-path="url(#clipPath2)"
         cx="450"
         cy="180"
         id="circle3403"
         d="m 469.5,180 c 0,10.76955 -8.73045,19.5 -19.5,19.5 -10.76955,0 -19.5,-8.73045 -19.5,-19.5 0,-10.76955 8.73045,-19.5 19.5,-19.5 10.76955,0 19.5,8.73045 19.5,19.5 z" />
      <text
         x="366.6709"
         xml:space="preserve"
         y="115.1543"
         clip-path="url(#clipPath2)"
         stroke="none"
         id="text3405">H1</text>
      <circle
         fill="none"
         r="19.5"
         clip-path="url(#clipPath2)"
         cx="375"
         cy="111"
         id="circle3407"
         d="m 394.5,111 c 0,10.76955 -8.73045,19.5 -19.5,19.5 -10.76955,0 -19.5,-8.73045 -19.5,-19.5 0,-10.76955 8.73045,-19.5 19.5,-19.5 10.76955,0 19.5,8.73045 19.5,19.5 z" />
      <text
         x="563.7158"
         xml:space="preserve"
         y="184.1543"
         clip-path="url(#clipPath2)"
         stroke="none"
         id="text3409">r2</text>
      <circle
         fill="none"
         r="19.5"
         clip-path="url(#clipPath2)"
         cx="570"
         cy="180"
         id="circle3411"
         d="m 589.5,180 c 0,10.76955 -8.73045,19.5 -19.5,19.5 -10.76955,0 -19.5,-8.73045 -19.5,-19.5 0,-10.76955 8.73045,-19.5 19.5,-19.5 10.76955,0 19.5,8.73045 19.5,19.5 z" />
      <text
         x="711.2754"
         xml:space="preserve"
         y="184.1543"
         clip-path="url(#clipPath2)"
         stroke="none"
         id="text3413">w2</text>
      <circle
         fill="none"
         r="19.5"
         clip-path="url(#clipPath2)"
         cx="720"
         cy="180"
         id="circle3415"
         d="m 739.5,180 c 0,10.76955 -8.73045,19.5 -19.5,19.5 -10.76955,0 -19.5,-8.73045 -19.5,-19.5 0,-10.76955 8.73045,-19.5 19.5,-19.5 10.76955,0 19.5,8.73045 19.5,19.5 z" />
      <text
         x="636.6709"
         xml:space="preserve"
         y="115.1543"
         clip-path="url(#clipPath2)"
         stroke="none"
         id="text3417">H2</text>
      <circle
         fill="none"
         r="19.5"
         clip-path="url(#clipPath2)"
         cx="645"
         cy="111"
         id="circle3419"
         d="m 664.5,111 c 0,10.76955 -8.73045,19.5 -19.5,19.5 -10.76955,0 -19.5,-8.73045 -19.5,-19.5 0,-10.76955 8.73045,-19.5 19.5,-19.5 10.76955,0 19.5,8.73045 19.5,19.5 z" />
      <text
         x="367.0723"
         xml:space="preserve"
         y="184.1543"
         clip-path="url(#clipPath2)"
         stroke="none"
         id="text3421">X1</text>
      <circle
         fill="none"
         r="20"
         clip-path="url(#clipPath2)"
         cx="375"
         cy="180"
         id="circle3423"
         d="m 395,180 c 0,11.04569 -8.95431,20 -20,20 -11.04569,0 -20,-8.95431 -20,-20 0,-11.04569 8.95431,-20 20,-20 11.04569,0 20,8.95431 20,20 z" />
      <text
         x="637.0723"
         xml:space="preserve"
         y="184.1543"
         clip-path="url(#clipPath2)"
         stroke="none"
         id="text3425">X2</text>
      <circle
         fill="none"
         r="20"
         clip-path="url(#clipPath2)"
         cx="645"
         cy="180"
         id="circle3427"
         d="m 665,180 c 0,11.04569 -8.95431,20 -20,20 -11.04569,0 -20,-8.95431 -20,-20 0,-11.04569 8.95431,-20 20,-20 11.04569,0 20,8.95431 20,20 z" />
      <text
         x="328.291"
         xml:space="preserve"
         y="244.1543"
         clip-path="url(#clipPath2)"
         stroke="none"
         id="text3429">U1</text>
      <circle
         fill="none"
         r="21.5"
         clip-path="url(#clipPath2)"
         cx="336.5"
         cy="240"
         id="circle3431"
         d="m 358,240 c 0,11.87412 -9.62588,21.5 -21.5,21.5 -11.87412,0 -21.5,-9.62588 -21.5,-21.5 0,-11.87412 9.62588,-21.5 21.5,-21.5 11.87412,0 21.5,9.62588 21.5,21.5 z" />
      <text
         x="600.291"
         xml:space="preserve"
         y="244.1543"
         clip-path="url(#clipPath2)"
         stroke="none"
         id="text3433">U2</text>
      <circle
         fill="none"
         r="21.5"
         clip-path="url(#clipPath2)"
         cx="608.5"
         cy="240"
         id="circle3435"
         d="m 630,240 c 0,11.87412 -9.62588,21.5 -21.5,21.5 -11.87412,0 -21.5,-9.62588 -21.5,-21.5 0,-11.87412 9.62588,-21.5 21.5,-21.5 11.87412,0 21.5,9.62588 21.5,21.5 z" />
      <text
         x="621.7998"
         xml:space="preserve"
         y="405.6543"
         clip-path="url(#clipPath2)"
         stroke="none"
         id="text3437">Up</text>
      <circle
         fill="none"
         r="21.5"
         clip-path="url(#clipPath2)"
         cx="630"
         cy="401.5"
         id="circle3439"
         d="m 651.5,401.5 c 0,11.87412 -9.62588,21.5 -21.5,21.5 -11.87412,0 -21.5,-9.62588 -21.5,-21.5 0,-11.87412 9.62588,-21.5 21.5,-21.5 11.87412,0 21.5,9.62588 21.5,21.5 z" />
      <text
         x="627.3105"
         xml:space="preserve"
         y="334.1543"
         clip-path="url(#clipPath2)"
         stroke="none"
         id="text3441">C</text>
      <circle
         fill="none"
         r="20"
         clip-path="url(#clipPath2)"
         cx="631.5"
         cy="330"
         id="circle3443"
         d="m 651.5,330 c 0,11.04569 -8.95431,20 -20,20 -11.04569,0 -20,-8.95431 -20,-20 0,-11.04569 8.95431,-20 20,-20 11.04569,0 20,8.95431 20,20 z" />
    </g>
  </g>
  <path
     style="fill:none;stroke:#ff0000;stroke-width:1px;stroke-linecap:butt;stroke-linejoin:miter;stroke-opacity:1"
     d="m 397.9883,346.7579 c -15.10941,7.98145 -29.26817,17.75858 -54.19415,7.19765 -25.32242,-19.78252 -17.03366,-94.73002 -14.81871,-108.3883 3.90109,-13.75655 12.00447,-17.73558 18.99639,-22.30084 13.02254,-8.50285 28.09067,-5.3448 43.24221,3.6716 13.80519,7.89861 11.73294,28.78784 13.97192,46.14971 -2.39922,24.55673 1.93066,52.478 -7.19766,73.67018 z"
     id="path3501"
     inkscape:connector-curvature="0"
     sodipodi:nodetypes="cccsccc" />
  <path
     style="fill:none;stroke:#0000ff;stroke-width:1px;stroke-linecap:butt;stroke-linejoin:miter;stroke-opacity:1"
     d="M 80.444444,75.363743 C 125.60624,74.516959 208.57438,69.889541 215.92982,72.823392 279.29395,123.7711 312.60429,215.3653 334.90292,216.77661 l 44.45614,-11.85497 c 14.5716,-8.76341 14.81871,-31.61325 8.04444,-44.45614 -12.41949,-13.26628 -30.72652,-19.17313 -37.25847,-39.79883 -3.10106,-8.61183 -4.65731,-28.649515 7.62105,-38.528659 12.25981,-6.869012 35.56491,-1.975828 53.34737,-2.963742 22.72203,1.270175 64.61575,-2.252574 68.16608,3.810526 6.19105,7.823398 2.68148,50.807015 -0.42339,55.887715 -29.91969,48.26667 -72.72179,130.88643 -89.75906,144.8 l -51.65381,-1.69356 C 291.59671,280.17349 180.7883,187.42144 102.46082,140.14269 L 66.472514,116.00935 C 60.550042,108.72462 53.204316,76.684189 80.444444,75.363743 z"
     id="path4271"
     inkscape:connector-curvature="0"
     sodipodi:nodetypes="ccccccccccccccc" />
  <path
     style="fill:none;stroke:#008000;stroke-width:1px;stroke-linecap:butt;stroke-linejoin:miter;stroke-opacity:1"
     d="m 280.28538,72.4 118.9731,-1.270175 c 12.45871,-1.36688 26.46578,15.51651 16.93567,43.609355 -17.10315,27.42027 -27.81471,62.03106 -52.92397,80.44445 -12.60114,4.12351 -22.57007,1.66649 -33.02457,0.42339 -15.75089,-6.35447 -41.49239,-62.66199 -62.23859,-93.99298 C 264.59588,92.215891 265.3423,79.178843 280.28538,72.4 z"
     id="path4294"
     inkscape:connector-curvature="0"
     sodipodi:nodetypes="ccccccc" />
  <path
     style="fill:none;stroke:#008000;stroke-width:1px;stroke-linecap:butt;stroke-linejoin:miter;stroke-opacity:1"
     d="M 15.242105,69.859649 126.59415,68.589474 c 33.30536,3.920182 29.22338,32.738486 24.13334,42.762576 -17.92359,28.79064 -37.44645,76.88349 -53.770765,86.37193 -13.640967,0.91297 -10.748932,2.67688 -44.45614,-0.4234 C 37.259262,190.81186 16.37115,143.24756 -0.84678363,115.16257 -15.493736,86.208578 -2.9562566,73.408764 15.242105,69.859649 z"
     id="path4296"
     inkscape:connector-curvature="0"
     sodipodi:nodetypes="ccccccc" />
  <path
     style="fill:none;stroke:#800080;stroke-width:1px;stroke-linecap:butt;stroke-linejoin:miter;stroke-opacity:1"
     d="m 80.867836,19.476023 c 8.001162,-7.367646 15.784796,-8.529434 30.484204,-11.4315785 5.80355,-2.0865134 20.45978,1.9093237 25.8269,6.7742695 2.69136,5.67256 14.60368,114.360806 -0.84678,113.045606 -14.25419,11.9961 -116.605537,1.64345 -122.36023,-1.69356 C 8.5310674,120.43634 6.3654842,108.28448 6.7742685,96.956726 6.1730144,75.496145 48.266666,49.536842 80.867836,19.476023 z"
     id="path4298"
     inkscape:connector-curvature="0"
     sodipodi:nodetypes="ccccccc" />
  <path
     style="fill:none;stroke:#d40000;stroke-width:1px;stroke-linecap:butt;stroke-linejoin:miter;stroke-opacity:1"
     d="m 342.94736,14.818714 c 19.43467,-1.564845 28.16603,-6.3406788 58.42807,-4.65731 18.65566,2.60582 31.42084,63.156362 30.90267,93.533396 -0.12873,7.54632 -1.07721,13.23053 -2.9588,15.70169 -6.01921,5.7057 -136.9671,44.45204 -159.19532,1.69357 0.29244,-63.141707 -0.28226,-40.504484 3.81052,-71.97661 9.37185,-19.142645 44.87953,-31.048733 69.01286,-34.294736 z"
     id="path4300"
     inkscape:connector-curvature="0"
     sodipodi:nodetypes="ccscccc" />
  <path
     style="fill:none;stroke:#ff00ff;stroke-width:1px;stroke-linecap:butt;stroke-linejoin:miter;stroke-opacity:1"
     d="M 82.561404,0.84678363 C 79.3154,8.8912293 66.691813,140.45907 91.876023,139.29591 c 37.823007,-2.11696 97.437077,7.87223 113.469007,-6.35088 15.52437,-24.41559 17.2255,-62.654418 46.5731,-73.246784 62.80312,-1.270176 180.92836,6.398281 188.40936,-3.810527 10.44366,-7.315188 7.76218,-58.1458085 -0.4234,-70.706432 -2.39071,-14.364782 -349.962518,0.498925 -357.342686,15.66549663 z"
     id="path4302"
     inkscape:connector-curvature="0"
     sodipodi:nodetypes="ccccccc" />
  <path
     style="fill:none;stroke:#ffff00;stroke-width:1px;stroke-linecap:butt;stroke-linejoin:miter;stroke-opacity:1"
     d="m 472.92866,70.283041 c 5.50409,5.927486 6.75132,38.543949 6.35087,48.266669 -12.13723,15.97769 -17.92359,14.39532 -30.06082,20.3228 -31.01341,7.58589 -78.98584,9.52121 -103.73099,-9.31462 -18.26955,-16.50422 -2.40524,-78.12 -18.20585,-90.182451 -11.64524,-8.618033 -103.18399,0.521302 -111.77544,8.044444 -15.94415,12.121176 -2.97719,86.609087 -12.27836,98.226897 -4.93957,8.32671 -87.73365,7.8372 -97.38012,5.92749 C 95.968809,150.16296 70.898548,110.64639 72.4,90.182457 73.991916,78.786999 92.469987,70.768773 104.15439,61.391813 L 207.0386,37.681871 c 62.52086,-9.173489 168.59148,-31.8986539 187.56257,-27.520467 25.1261,7.977321 52.21833,40.081091 78.32749,60.121637 z"
     id="path4304"
     inkscape:connector-curvature="0"
     sodipodi:nodetypes="ccccccccccccc" />
</svg>
