<?xml version="1.0" encoding="UTF-8"?><svg xmlns="http://www.w3.org/2000/svg" xmlns:xlink="http://www.w3.org/1999/xlink" fill-opacity="1" color-rendering="auto" color-interpolation="auto" text-rendering="auto" stroke="black" stroke-linecap="square" width="1361" stroke-miterlimit="10" shape-rendering="auto" stroke-opacity="1" fill="black" stroke-dasharray="none" font-weight="normal" stroke-width="1" height="612" font-family="'Dialog'" font-style="normal" stroke-linejoin="miter" font-size="12" stroke-dashoffset="0" image-rendering="auto">
  <!--Generated by ySVG 2.5-->
  <defs id="genericDefs"/>
  <g>
    <defs id="defs1">
      <clipPath clipPathUnits="userSpaceOnUse" id="clipPath1">
        <path d="M0 0 L1361 0 L1361 612 L0 612 L0 0 Z"/>
      </clipPath>
      <clipPath clipPathUnits="userSpaceOnUse" id="clipPath2">
        <path d="M210 180 L1571 180 L1571 792 L210 792 L210 180 Z"/>
      </clipPath>
    </defs>
    <g fill="white" text-rendering="geometricPrecision" shape-rendering="geometricPrecision" transform="translate(-210,-180)" stroke="white">
      <rect x="210" width="1361" height="612" y="180" clip-path="url(#clipPath2)" stroke="none"/>
    </g>
    <g text-rendering="geometricPrecision" stroke-miterlimit="1.45" shape-rendering="geometricPrecision" transform="matrix(1,0,0,1,-210,-180)" stroke-linecap="butt">
      <circle fill="none" r="81.5" clip-path="url(#clipPath2)" cx="306.5" cy="276.5"/>
      <circle fill="none" r="81.5" clip-path="url(#clipPath2)" cx="540" cy="276.5"/>
      <circle fill="none" r="81.5" clip-path="url(#clipPath2)" cx="773.5" cy="276.5"/>
      <circle fill="none" r="81.5" clip-path="url(#clipPath2)" cx="1007" cy="276.5"/>
      <circle fill="none" r="81.5" clip-path="url(#clipPath2)" cx="1240.5" cy="276.5"/>
      <circle fill="none" r="81.5" clip-path="url(#clipPath2)" cx="1007" cy="480"/>
      <circle fill="none" r="81.5" clip-path="url(#clipPath2)" cx="1007" cy="695"/>
      <circle fill="none" r="81.5" clip-path="url(#clipPath2)" cx="1474" cy="276.5"/>
    </g>
    <g fill="rgb(255,204,0)" text-rendering="geometricPrecision" shape-rendering="geometricPrecision" transform="matrix(1,0,0,1,-210,-180)" stroke="rgb(255,204,0)">
      <circle r="20" clip-path="url(#clipPath2)" cx="974" cy="240" stroke="none"/>
    </g>
    <g text-rendering="geometricPrecision" stroke-miterlimit="1.45" shape-rendering="geometricPrecision" font-family="sans-serif" transform="matrix(1,0,0,1,-210,-180)" stroke-linecap="butt">
      <text x="966.0723" xml:space="preserve" y="244.1543" clip-path="url(#clipPath2)" stroke="none">X1</text>
      <circle fill="none" r="20" clip-path="url(#clipPath2)" cx="974" cy="240"/>
    </g>
    <g fill="rgb(255,204,0)" text-rendering="geometricPrecision" shape-rendering="geometricPrecision" transform="matrix(1,0,0,1,-210,-180)" stroke="rgb(255,204,0)">
      <circle r="20" clip-path="url(#clipPath2)" cx="1032" cy="240" stroke="none"/>
    </g>
    <g text-rendering="geometricPrecision" stroke-miterlimit="1.45" shape-rendering="geometricPrecision" font-family="sans-serif" transform="matrix(1,0,0,1,-210,-180)" stroke-linecap="butt">
      <text x="1024.0723" xml:space="preserve" y="244.1543" clip-path="url(#clipPath2)" stroke="none">X2</text>
      <circle fill="none" r="20" clip-path="url(#clipPath2)" cx="1032" cy="240"/>
    </g>
    <g fill="rgb(255,204,0)" text-rendering="geometricPrecision" shape-rendering="geometricPrecision" transform="matrix(1,0,0,1,-210,-180)" stroke="rgb(255,204,0)">
      <circle r="20" clip-path="url(#clipPath2)" cx="962" cy="300" stroke="none"/>
    </g>
    <g text-rendering="geometricPrecision" stroke-miterlimit="1.45" shape-rendering="geometricPrecision" font-family="sans-serif" transform="matrix(1,0,0,1,-210,-180)" stroke-linecap="butt">
      <text x="953.2754" xml:space="preserve" y="304.1543" clip-path="url(#clipPath2)" stroke="none">w1</text>
      <circle fill="none" r="20" clip-path="url(#clipPath2)" cx="962" cy="300"/>
    </g>
    <g fill="rgb(255,204,0)" text-rendering="geometricPrecision" shape-rendering="geometricPrecision" transform="matrix(1,0,0,1,-210,-180)" stroke="rgb(255,204,0)">
      <circle r="20" clip-path="url(#clipPath2)" cx="1060" cy="285" stroke="none"/>
    </g>
    <g text-rendering="geometricPrecision" stroke-miterlimit="1.45" shape-rendering="geometricPrecision" font-family="sans-serif" transform="matrix(1,0,0,1,-210,-180)" stroke-linecap="butt">
      <text x="1052.3799" xml:space="preserve" y="289.1543" clip-path="url(#clipPath2)" stroke="none">h2</text>
      <circle fill="none" r="20" clip-path="url(#clipPath2)" cx="1060" cy="285"/>
    </g>
    <g fill="rgb(255,204,0)" text-rendering="geometricPrecision" shape-rendering="geometricPrecision" transform="matrix(1,0,0,1,-210,-180)" stroke="rgb(255,204,0)">
      <circle r="20" clip-path="url(#clipPath2)" cx="1014" cy="315" stroke="none"/>
    </g>
    <g text-rendering="geometricPrecision" stroke-miterlimit="1.45" shape-rendering="geometricPrecision" font-family="sans-serif" transform="matrix(1,0,0,1,-210,-180)" stroke-linecap="butt">
      <text x="1005.2754" xml:space="preserve" y="319.1543" clip-path="url(#clipPath2)" stroke="none">w2</text>
      <circle fill="none" r="20" clip-path="url(#clipPath2)" cx="1014" cy="315"/>
    </g>
    <g fill="rgb(255,204,0)" text-rendering="geometricPrecision" shape-rendering="geometricPrecision" transform="matrix(1,0,0,1,-210,-180)" stroke="rgb(255,204,0)">
      <circle r="20" clip-path="url(#clipPath2)" cx="972" cy="450" stroke="none"/>
    </g>
    <g text-rendering="geometricPrecision" stroke-miterlimit="1.45" shape-rendering="geometricPrecision" font-family="sans-serif" transform="matrix(1,0,0,1,-210,-180)" stroke-linecap="butt">
      <text x="964.0723" xml:space="preserve" y="454.1543" clip-path="url(#clipPath2)" stroke="none">X1</text>
      <circle fill="none" r="20" clip-path="url(#clipPath2)" cx="972" cy="450"/>
    </g>
    <g fill="rgb(255,204,0)" text-rendering="geometricPrecision" shape-rendering="geometricPrecision" transform="matrix(1,0,0,1,-210,-180)" stroke="rgb(255,204,0)">
      <circle r="20" clip-path="url(#clipPath2)" cx="1031" cy="440" stroke="none"/>
    </g>
    <g text-rendering="geometricPrecision" stroke-miterlimit="1.45" shape-rendering="geometricPrecision" font-family="sans-serif" transform="matrix(1,0,0,1,-210,-180)" stroke-linecap="butt">
      <text x="1023.0723" xml:space="preserve" y="444.1543" clip-path="url(#clipPath2)" stroke="none">X2</text>
      <circle fill="none" r="20" clip-path="url(#clipPath2)" cx="1031" cy="440"/>
    </g>
    <g fill="rgb(255,204,0)" text-rendering="geometricPrecision" shape-rendering="geometricPrecision" transform="matrix(1,0,0,1,-210,-180)" stroke="rgb(255,204,0)">
      <circle r="20" clip-path="url(#clipPath2)" cx="961" cy="499" stroke="none"/>
    </g>
    <g text-rendering="geometricPrecision" stroke-miterlimit="1.45" shape-rendering="geometricPrecision" font-family="sans-serif" transform="matrix(1,0,0,1,-210,-180)" stroke-linecap="butt">
      <text x="952.2754" xml:space="preserve" y="503.1543" clip-path="url(#clipPath2)" stroke="none">w1</text>
      <circle fill="none" r="20" clip-path="url(#clipPath2)" cx="961" cy="499"/>
    </g>
    <g fill="rgb(255,204,0)" text-rendering="geometricPrecision" shape-rendering="geometricPrecision" transform="matrix(1,0,0,1,-210,-180)" stroke="rgb(255,204,0)">
      <circle r="20" clip-path="url(#clipPath2)" cx="1007" cy="529" stroke="none"/>
    </g>
    <g text-rendering="geometricPrecision" stroke-miterlimit="1.45" shape-rendering="geometricPrecision" font-family="sans-serif" transform="matrix(1,0,0,1,-210,-180)" stroke-linecap="butt">
      <text x="998.2754" xml:space="preserve" y="533.1543" clip-path="url(#clipPath2)" stroke="none">w2</text>
      <circle fill="none" r="20" clip-path="url(#clipPath2)" cx="1007" cy="529"/>
    </g>
    <g fill="rgb(255,204,0)" text-rendering="geometricPrecision" shape-rendering="geometricPrecision" transform="matrix(1,0,0,1,-210,-180)" stroke="rgb(255,204,0)">
      <circle r="20" clip-path="url(#clipPath2)" cx="1047" cy="490" stroke="none"/>
    </g>
    <g text-rendering="geometricPrecision" stroke-miterlimit="1.45" shape-rendering="geometricPrecision" font-family="sans-serif" transform="matrix(1,0,0,1,-210,-180)" stroke-linecap="butt">
      <text x="1042.8105" xml:space="preserve" y="494.1543" clip-path="url(#clipPath2)" stroke="none">C</text>
      <circle fill="none" r="20" clip-path="url(#clipPath2)" cx="1047" cy="490"/>
    </g>
    <g fill="rgb(255,204,0)" text-rendering="geometricPrecision" shape-rendering="geometricPrecision" transform="matrix(1,0,0,1,-210,-180)" stroke="rgb(255,204,0)">
      <circle r="20" clip-path="url(#clipPath2)" cx="977" cy="670" stroke="none"/>
    </g>
    <g text-rendering="geometricPrecision" stroke-miterlimit="1.45" shape-rendering="geometricPrecision" font-family="sans-serif" transform="matrix(1,0,0,1,-210,-180)" stroke-linecap="butt">
      <text x="972.8105" xml:space="preserve" y="674.1543" clip-path="url(#clipPath2)" stroke="none">C</text>
      <circle fill="none" r="20" clip-path="url(#clipPath2)" cx="977" cy="670"/>
    </g>
    <g fill="rgb(255,204,0)" text-rendering="geometricPrecision" shape-rendering="geometricPrecision" transform="matrix(1,0,0,1,-210,-180)" stroke="rgb(255,204,0)">
      <circle r="20" clip-path="url(#clipPath2)" cx="1034" cy="710" stroke="none"/>
    </g>
    <g text-rendering="geometricPrecision" stroke-miterlimit="1.45" shape-rendering="geometricPrecision" font-family="sans-serif" transform="matrix(1,0,0,1,-210,-180)" stroke-linecap="butt">
      <text x="1025.7998" xml:space="preserve" y="714.1543" clip-path="url(#clipPath2)" stroke="none">Up</text>
      <circle fill="none" r="20" clip-path="url(#clipPath2)" cx="1034" cy="710"/>
    </g>
    <g fill="rgb(255,204,0)" text-rendering="geometricPrecision" shape-rendering="geometricPrecision" transform="matrix(1,0,0,1,-210,-180)" stroke="rgb(255,204,0)">
      <circle r="20" clip-path="url(#clipPath2)" cx="1213" cy="259" stroke="none"/>
    </g>
    <g text-rendering="geometricPrecision" stroke-miterlimit="1.45" shape-rendering="geometricPrecision" font-family="sans-serif" transform="matrix(1,0,0,1,-210,-180)" stroke-linecap="butt">
      <text x="1205.3799" xml:space="preserve" y="263.1543" clip-path="url(#clipPath2)" stroke="none">h2</text>
      <circle fill="none" r="20" clip-path="url(#clipPath2)" cx="1213" cy="259"/>
    </g>
    <g fill="rgb(255,204,0)" text-rendering="geometricPrecision" shape-rendering="geometricPrecision" transform="matrix(1,0,0,1,-210,-180)" stroke="rgb(255,204,0)">
      <circle r="20" clip-path="url(#clipPath2)" cx="1283" cy="259" stroke="none"/>
    </g>
    <g text-rendering="geometricPrecision" stroke-miterlimit="1.45" shape-rendering="geometricPrecision" font-family="sans-serif" transform="matrix(1,0,0,1,-210,-180)" stroke-linecap="butt">
      <text x="1276.7158" xml:space="preserve" y="263.1543" clip-path="url(#clipPath2)" stroke="none">r2</text>
      <circle fill="none" r="20" clip-path="url(#clipPath2)" cx="1283" cy="259"/>
    </g>
    <g fill="rgb(255,204,0)" text-rendering="geometricPrecision" shape-rendering="geometricPrecision" transform="matrix(1,0,0,1,-210,-180)" stroke="rgb(255,204,0)">
      <circle r="20" clip-path="url(#clipPath2)" cx="1243" cy="312" stroke="none"/>
    </g>
    <g text-rendering="geometricPrecision" stroke-miterlimit="1.45" shape-rendering="geometricPrecision" font-family="sans-serif" transform="matrix(1,0,0,1,-210,-180)" stroke-linecap="butt">
      <text x="1235.0723" xml:space="preserve" y="316.1543" clip-path="url(#clipPath2)" stroke="none">X2</text>
      <circle fill="none" r="20" clip-path="url(#clipPath2)" cx="1243" cy="312"/>
    </g>
    <g fill="rgb(255,204,0)" text-rendering="geometricPrecision" shape-rendering="geometricPrecision" transform="matrix(1,0,0,1,-210,-180)" stroke="rgb(255,204,0)">
      <circle r="20" clip-path="url(#clipPath2)" cx="1440" cy="240" stroke="none"/>
    </g>
    <g text-rendering="geometricPrecision" stroke-miterlimit="1.45" shape-rendering="geometricPrecision" font-family="sans-serif" transform="matrix(1,0,0,1,-210,-180)" stroke-linecap="butt">
      <text x="1432.0723" xml:space="preserve" y="244.1543" clip-path="url(#clipPath2)" stroke="none">X2</text>
      <circle fill="none" r="20" clip-path="url(#clipPath2)" cx="1440" cy="240"/>
    </g>
    <g fill="rgb(255,204,0)" text-rendering="geometricPrecision" shape-rendering="geometricPrecision" transform="matrix(1,0,0,1,-210,-180)" stroke="rgb(255,204,0)">
      <circle r="20" clip-path="url(#clipPath2)" cx="1515" cy="270" stroke="none"/>
    </g>
    <g text-rendering="geometricPrecision" stroke-miterlimit="1.45" shape-rendering="geometricPrecision" font-family="sans-serif" transform="matrix(1,0,0,1,-210,-180)" stroke-linecap="butt">
      <text x="1508.7158" xml:space="preserve" y="274.1543" clip-path="url(#clipPath2)" stroke="none">r2</text>
      <circle fill="none" r="20" clip-path="url(#clipPath2)" cx="1515" cy="270"/>
    </g>
    <g fill="rgb(255,204,0)" text-rendering="geometricPrecision" shape-rendering="geometricPrecision" transform="matrix(1,0,0,1,-210,-180)" stroke="rgb(255,204,0)">
      <circle r="20" clip-path="url(#clipPath2)" cx="1470" cy="310" stroke="none"/>
    </g>
    <g text-rendering="geometricPrecision" stroke-miterlimit="1.45" shape-rendering="geometricPrecision" font-family="sans-serif" transform="matrix(1,0,0,1,-210,-180)" stroke-linecap="butt">
      <text x="1461.791" xml:space="preserve" y="314.1543" clip-path="url(#clipPath2)" stroke="none">U2</text>
      <circle fill="none" r="20" clip-path="url(#clipPath2)" cx="1470" cy="310"/>
    </g>
    <g fill="rgb(255,204,0)" text-rendering="geometricPrecision" shape-rendering="geometricPrecision" transform="matrix(1,0,0,1,-210,-180)" stroke="rgb(255,204,0)">
      <circle r="20" clip-path="url(#clipPath2)" cx="750" cy="250" stroke="none"/>
    </g>
    <g text-rendering="geometricPrecision" stroke-miterlimit="1.45" shape-rendering="geometricPrecision" font-family="sans-serif" transform="matrix(1,0,0,1,-210,-180)" stroke-linecap="butt">
      <text x="742.3799" xml:space="preserve" y="254.1543" clip-path="url(#clipPath2)" stroke="none">h1</text>
      <circle fill="none" r="20" clip-path="url(#clipPath2)" cx="750" cy="250"/>
    </g>
    <g fill="rgb(255,204,0)" text-rendering="geometricPrecision" shape-rendering="geometricPrecision" transform="matrix(1,0,0,1,-210,-180)" stroke="rgb(255,204,0)">
      <circle r="20" clip-path="url(#clipPath2)" cx="810" cy="256" stroke="none"/>
    </g>
    <g text-rendering="geometricPrecision" stroke-miterlimit="1.45" shape-rendering="geometricPrecision" font-family="sans-serif" transform="matrix(1,0,0,1,-210,-180)" stroke-linecap="butt">
      <text x="802.0723" xml:space="preserve" y="260.1543" clip-path="url(#clipPath2)" stroke="none">X1</text>
      <circle fill="none" r="20" clip-path="url(#clipPath2)" cx="810" cy="256"/>
    </g>
    <g fill="rgb(255,204,0)" text-rendering="geometricPrecision" shape-rendering="geometricPrecision" transform="matrix(1,0,0,1,-210,-180)" stroke="rgb(255,204,0)">
      <circle r="20" clip-path="url(#clipPath2)" cx="740" cy="300" stroke="none"/>
    </g>
    <g text-rendering="geometricPrecision" stroke-miterlimit="1.45" shape-rendering="geometricPrecision" font-family="sans-serif" transform="matrix(1,0,0,1,-210,-180)" stroke-linecap="butt">
      <text x="732.3799" xml:space="preserve" y="304.1543" clip-path="url(#clipPath2)" stroke="none">h2</text>
      <circle fill="none" r="20" clip-path="url(#clipPath2)" cx="740" cy="300"/>
    </g>
    <g fill="rgb(255,204,0)" text-rendering="geometricPrecision" shape-rendering="geometricPrecision" transform="matrix(1,0,0,1,-210,-180)" stroke="rgb(255,204,0)">
      <circle r="20" clip-path="url(#clipPath2)" cx="796" cy="320" stroke="none"/>
    </g>
    <g text-rendering="geometricPrecision" stroke-miterlimit="1.45" shape-rendering="geometricPrecision" font-family="sans-serif" transform="matrix(1,0,0,1,-210,-180)" stroke-linecap="butt">
      <text x="787.2754" xml:space="preserve" y="324.1543" clip-path="url(#clipPath2)" stroke="none">w1</text>
      <circle fill="none" r="20" clip-path="url(#clipPath2)" cx="796" cy="320"/>
    </g>
    <g fill="rgb(255,204,0)" text-rendering="geometricPrecision" shape-rendering="geometricPrecision" transform="matrix(1,0,0,1,-210,-180)" stroke="rgb(255,204,0)">
      <circle r="20" clip-path="url(#clipPath2)" cx="510" cy="240" stroke="none"/>
    </g>
    <g text-rendering="geometricPrecision" stroke-miterlimit="1.45" shape-rendering="geometricPrecision" font-family="sans-serif" transform="matrix(1,0,0,1,-210,-180)" stroke-linecap="butt">
      <text x="502.3799" xml:space="preserve" y="244.1543" clip-path="url(#clipPath2)" stroke="none">h1</text>
      <circle fill="none" r="20" clip-path="url(#clipPath2)" cx="510" cy="240"/>
    </g>
    <g fill="rgb(255,204,0)" text-rendering="geometricPrecision" shape-rendering="geometricPrecision" transform="matrix(1,0,0,1,-210,-180)" stroke="rgb(255,204,0)">
      <circle r="20" clip-path="url(#clipPath2)" cx="573" cy="270" stroke="none"/>
    </g>
    <g text-rendering="geometricPrecision" stroke-miterlimit="1.45" shape-rendering="geometricPrecision" font-family="sans-serif" transform="matrix(1,0,0,1,-210,-180)" stroke-linecap="butt">
      <text x="565.0723" xml:space="preserve" y="274.1543" clip-path="url(#clipPath2)" stroke="none">X1</text>
      <circle fill="none" r="20" clip-path="url(#clipPath2)" cx="573" cy="270"/>
    </g>
    <g fill="rgb(255,204,0)" text-rendering="geometricPrecision" shape-rendering="geometricPrecision" transform="matrix(1,0,0,1,-210,-180)" stroke="rgb(255,204,0)">
      <circle r="20" clip-path="url(#clipPath2)" cx="526" cy="310" stroke="none"/>
    </g>
    <g text-rendering="geometricPrecision" stroke-miterlimit="1.45" shape-rendering="geometricPrecision" font-family="sans-serif" transform="matrix(1,0,0,1,-210,-180)" stroke-linecap="butt">
      <text x="519.7158" xml:space="preserve" y="314.1543" clip-path="url(#clipPath2)" stroke="none">r1</text>
      <circle fill="none" r="20" clip-path="url(#clipPath2)" cx="526" cy="310"/>
    </g>
    <g fill="rgb(255,204,0)" text-rendering="geometricPrecision" shape-rendering="geometricPrecision" transform="matrix(1,0,0,1,-210,-180)" stroke="rgb(255,204,0)">
      <circle r="20" clip-path="url(#clipPath2)" cx="270" cy="240" stroke="none"/>
    </g>
    <g text-rendering="geometricPrecision" stroke-miterlimit="1.45" shape-rendering="geometricPrecision" font-family="sans-serif" transform="matrix(1,0,0,1,-210,-180)" stroke-linecap="butt">
      <text x="262.0723" xml:space="preserve" y="244.1543" clip-path="url(#clipPath2)" stroke="none">X1</text>
      <circle fill="none" r="20" clip-path="url(#clipPath2)" cx="270" cy="240"/>
    </g>
    <g fill="rgb(255,204,0)" text-rendering="geometricPrecision" shape-rendering="geometricPrecision" transform="matrix(1,0,0,1,-210,-180)" stroke="rgb(255,204,0)">
      <circle r="20" clip-path="url(#clipPath2)" cx="340" cy="260" stroke="none"/>
    </g>
    <g text-rendering="geometricPrecision" stroke-miterlimit="1.45" shape-rendering="geometricPrecision" font-family="sans-serif" transform="matrix(1,0,0,1,-210,-180)" stroke-linecap="butt">
      <text x="333.7158" xml:space="preserve" y="264.1543" clip-path="url(#clipPath2)" stroke="none">r1</text>
      <circle fill="none" r="20" clip-path="url(#clipPath2)" cx="340" cy="260"/>
    </g>
    <g fill="rgb(255,204,0)" text-rendering="geometricPrecision" shape-rendering="geometricPrecision" transform="matrix(1,0,0,1,-210,-180)" stroke="rgb(255,204,0)">
      <circle r="20" clip-path="url(#clipPath2)" cx="300" cy="310" stroke="none"/>
    </g>
    <g text-rendering="geometricPrecision" stroke-miterlimit="1.45" shape-rendering="geometricPrecision" font-family="sans-serif" transform="matrix(1,0,0,1,-210,-180)" stroke-linecap="butt">
      <text x="291.791" xml:space="preserve" y="314.1543" clip-path="url(#clipPath2)" stroke="none">U1</text>
      <circle fill="none" r="20" clip-path="url(#clipPath2)" cx="300" cy="310"/>
      <path fill="none" d="M388 276.5 L458.5 276.5" clip-path="url(#clipPath2)"/>
      <path fill="none" d="M621.5 276.5 L692 276.5" clip-path="url(#clipPath2)"/>
      <path fill="none" d="M855 276.5 L925.5 276.5" clip-path="url(#clipPath2)"/>
      <path fill="none" d="M1088.5 276.5 L1159 276.5" clip-path="url(#clipPath2)"/>
      <path fill="none" d="M1007 358 L1007 398.5" clip-path="url(#clipPath2)"/>
      <path fill="none" d="M1007 561.5 L1007 613.5" clip-path="url(#clipPath2)"/>
      <path fill="none" d="M1322 276.5 L1392.5 276.5" clip-path="url(#clipPath2)"/>
    </g>
  </g>
</svg>
