<?xml version="1.0" encoding="UTF-8"?><svg xmlns="http://www.w3.org/2000/svg" xmlns:xlink="http://www.w3.org/1999/xlink" fill-opacity="1" color-rendering="auto" color-interpolation="auto" stroke="black" text-rendering="auto" stroke-linecap="square" width="372" stroke-miterlimit="10" stroke-opacity="1" shape-rendering="auto" fill="black" stroke-dasharray="none" font-weight="normal" stroke-width="1" height="368" font-family="'Dialog'" font-style="normal" stroke-linejoin="miter" font-size="12" stroke-dashoffset="0" image-rendering="auto">
  <!--Generated by ySVG 2.5-->
  <defs id="genericDefs"/>
  <g>
    <defs id="defs1">
      <clipPath clipPathUnits="userSpaceOnUse" id="clipPath1">
        <path d="M0 0 L372 0 L372 368 L0 368 L0 0 Z"/>
      </clipPath>
      <clipPath clipPathUnits="userSpaceOnUse" id="clipPath2">
        <path d="M414 101 L786 101 L786 469 L414 469 L414 101 Z"/>
      </clipPath>
      <clipPath clipPathUnits="userSpaceOnUse" id="clipPath3">
        <path d="M148.665 -133.2845 L148.665 238.7155 L-219.335 238.7155 L-219.335 -133.2845 L148.665 -133.2845 Z"/>
      </clipPath>
      <clipPath clipPathUnits="userSpaceOnUse" id="clipPath4">
        <path d="M141.3569 -220.396 L141.3569 151.604 L-226.6431 151.604 L-226.6431 -220.396 L141.3569 -220.396 Z"/>
      </clipPath>
      <clipPath clipPathUnits="userSpaceOnUse" id="clipPath5">
        <path d="M-226.6127 245.5672 L-226.6127 -126.4328 L141.3873 -126.4328 L141.3873 245.5672 L-226.6127 245.5672 Z"/>
      </clipPath>
      <clipPath clipPathUnits="userSpaceOnUse" id="clipPath6">
        <path d="M-226.6832 148.82 L-226.6832 -223.18 L141.3168 -223.18 L141.3168 148.82 L-226.6832 148.82 Z"/>
      </clipPath>
    </defs>
    <g fill="white" text-rendering="geometricPrecision" shape-rendering="geometricPrecision" transform="translate(-414,-101)" stroke="white">
      <rect x="414" width="372" height="368" y="101" clip-path="url(#clipPath2)" stroke="none"/>
    </g>
    <g fill="rgb(255,204,0)" text-rendering="geometricPrecision" shape-rendering="geometricPrecision" transform="matrix(1,0,0,1,-414,-101)" stroke="rgb(255,204,0)">
      <rect x="566.5" y="251.5" clip-path="url(#clipPath2)" width="67" rx="4" ry="4" height="67" stroke="none"/>
    </g>
    <g font-size="40" stroke-linecap="butt" transform="matrix(1,0,0,1,-414,-101)" text-rendering="geometricPrecision" font-family="'Te X Gyre Bonum'" shape-rendering="geometricPrecision" stroke-miterlimit="1.45">
      <text x="586.4" xml:space="preserve" y="301.02" clip-path="url(#clipPath2)" stroke="none">A</text>
      <rect x="566.5" y="251.5" clip-path="url(#clipPath2)" fill="none" width="67" rx="4" ry="4" height="67"/>
    </g>
    <g fill="lime" text-rendering="geometricPrecision" shape-rendering="geometricPrecision" transform="matrix(1,0,0,1,-414,-101)" stroke="lime">
      <rect x="703.5" y="251.5" clip-path="url(#clipPath2)" width="67" rx="4" ry="4" height="67" stroke="none"/>
    </g>
    <g font-size="40" stroke-linecap="butt" transform="matrix(1,0,0,1,-414,-101)" text-rendering="geometricPrecision" font-family="'Te X Gyre Bonum'" shape-rendering="geometricPrecision" stroke-miterlimit="1.45">
      <text x="722.2" xml:space="preserve" y="301.02" clip-path="url(#clipPath2)" stroke="none">C</text>
      <rect x="703.5" y="251.5" clip-path="url(#clipPath2)" fill="none" width="67" rx="4" ry="4" height="67"/>
    </g>
    <g fill="rgb(51,102,255)" text-rendering="geometricPrecision" shape-rendering="geometricPrecision" transform="matrix(1,0,0,1,-414,-101)" stroke="rgb(51,102,255)">
      <rect x="429.5" y="251.5" clip-path="url(#clipPath2)" width="67" rx="4" ry="4" height="67" stroke="none"/>
    </g>
    <g font-size="40" stroke-linecap="butt" transform="matrix(1,0,0,1,-414,-101)" text-rendering="geometricPrecision" font-family="'Te X Gyre Bonum'" shape-rendering="geometricPrecision" stroke-miterlimit="1.45">
      <text x="448.6" xml:space="preserve" y="301.02" clip-path="url(#clipPath2)" stroke="none">E</text>
      <rect x="429.5" y="251.5" clip-path="url(#clipPath2)" fill="none" width="67" rx="4" ry="4" height="67"/>
    </g>
    <g fill="rgb(255,102,0)" text-rendering="geometricPrecision" shape-rendering="geometricPrecision" transform="matrix(1,0,0,1,-414,-101)" stroke="rgb(255,102,0)">
      <rect x="572.936" y="116.5" clip-path="url(#clipPath2)" width="67" rx="4" ry="4" height="67" stroke="none"/>
    </g>
    <g font-size="40" stroke-linecap="butt" transform="matrix(1,0,0,1,-414,-101)" text-rendering="geometricPrecision" font-family="'Te X Gyre Bonum'" shape-rendering="geometricPrecision" stroke-miterlimit="1.45">
      <text x="591.636" xml:space="preserve" y="166.02" clip-path="url(#clipPath2)" stroke="none">B</text>
      <rect x="572.936" y="116.5" clip-path="url(#clipPath2)" fill="none" width="67" rx="4" ry="4" height="67"/>
    </g>
    <g fill="fuchsia" text-rendering="geometricPrecision" shape-rendering="geometricPrecision" transform="matrix(1,0,0,1,-414,-101)" stroke="fuchsia">
      <rect x="566.5" y="386.5" clip-path="url(#clipPath2)" width="67" rx="4" ry="4" height="67" stroke="none"/>
    </g>
    <g font-size="40" stroke-linecap="butt" transform="matrix(1,0,0,1,-414,-101)" text-rendering="geometricPrecision" font-family="'Te X Gyre Bonum'" shape-rendering="geometricPrecision" stroke-miterlimit="1.45">
      <text x="584" xml:space="preserve" y="436.02" clip-path="url(#clipPath2)" stroke="none">D</text>
      <rect x="566.5" y="386.5" clip-path="url(#clipPath2)" fill="none" width="67" rx="4" ry="4" height="67"/>
      <path fill="none" d="M633.4807 285 L695.5129 285" clip-path="url(#clipPath2)"/>
      <path d="M703.5129 285 L691.5129 280 L694.5129 285 L691.5129 290 Z" clip-path="url(#clipPath2)" stroke="none"/>
      <text x="639.749" font-size="12" y="279.1543" clip-path="url(#clipPath2)" font-family="sans-serif" stroke="none" xml:space="preserve">kids</text>
      <path fill="none" d="M566.5193 285 L504.4871 285" clip-path="url(#clipPath2)"/>
      <path d="M496.4871 285 L508.4871 290 L505.4871 285 L508.4871 280 Z" clip-path="url(#clipPath2)" stroke="none"/>
      <text x="528.9107" font-size="12" y="276.6543" clip-path="url(#clipPath2)" font-family="sans-serif" stroke="none" xml:space="preserve">kids</text>
      <path fill="none" d="M577.5214 251.5221 L576.7179 250.0634 L571.2996 232.8917 L570.1462 224.38 L570.0299 215.9178 L570.9507 207.505 L572.9086 199.1417 L576.4157 190.868" clip-path="url(#clipPath2)"/>
      <path d="M579.5379 183.5024 L570.2511 192.5994 L576.0255 191.7887 L579.4581 196.5021 Z" clip-path="url(#clipPath2)" stroke="none"/>
    </g>
    <g text-rendering="geometricPrecision" stroke-miterlimit="1.45" shape-rendering="geometricPrecision" font-family="sans-serif" transform="matrix(-0,-1,1,-0,133.2845,148.665)" stroke-linecap="butt">
      <text x="2" xml:space="preserve" y="13.1387" clip-path="url(#clipPath3)" stroke="none">shoppers</text>
    </g>
    <g text-rendering="geometricPrecision" stroke-miterlimit="1.45" shape-rendering="geometricPrecision" transform="matrix(1,0,0,1,-414,-101)" stroke-linecap="butt">
      <path fill="none" d="M621.9343 251.5253 L627.5215 235.572 L629.9999 218.7768 L629.1305 201.822 L626.5228 191.2389 L626.4827 191.1473" clip-path="url(#clipPath2)"/>
      <path d="M624.3701 183.4313 L622.7164 196.3257 L626.7468 192.1118 L632.3615 193.685 Z" clip-path="url(#clipPath2)" stroke="none"/>
    </g>
    <g text-rendering="geometricPrecision" stroke-miterlimit="1.45" shape-rendering="geometricPrecision" font-family="sans-serif" transform="matrix(-0,-1,1,-0,220.396,141.357)" stroke-linecap="butt">
      <text x="2" xml:space="preserve" y="13.1387" clip-path="url(#clipPath4)" stroke="none">workers</text>
    </g>
    <g text-rendering="geometricPrecision" stroke-miterlimit="1.45" shape-rendering="geometricPrecision" transform="matrix(1,0,0,1,-414,-101)" stroke-linecap="butt">
      <path fill="none" d="M625.1683 318.5193 L625.3125 318.75 L631.6406 335.625 L633.2227 344.0625 L633.75 352.5 L633.2227 360.9375 L631.6406 369.375 L628.0278 379.0092 L627.9748 379.094" clip-path="url(#clipPath2)"/>
      <path d="M625.1335 386.5724 L634.0695 377.1306 L628.33 378.1592 L624.7214 373.579 Z" clip-path="url(#clipPath2)" stroke="none"/>
    </g>
    <g text-rendering="geometricPrecision" stroke-miterlimit="1.45" shape-rendering="geometricPrecision" font-family="sans-serif" transform="matrix(0,1,-1,0,245.5672,226.6127)" stroke-linecap="butt">
      <text x="2" xml:space="preserve" y="13.1387" clip-path="url(#clipPath5)" stroke="none">workers</text>
    </g>
    <g text-rendering="geometricPrecision" stroke-miterlimit="1.45" shape-rendering="geometricPrecision" transform="matrix(1,0,0,1,-414,-101)" stroke-linecap="butt">
      <path fill="none" d="M577.6282 318.5193 L577.5 318.75 L571.875 335.625 L570 352.5 L571.875 369.375 L575.0522 378.9068 L575.1008 378.9942" clip-path="url(#clipPath2)"/>
      <path d="M577.6596 386.5739 L578.5587 373.605 L574.7809 378.0467 L569.084 376.8036 Z" clip-path="url(#clipPath2)" stroke="none"/>
    </g>
    <g text-rendering="geometricPrecision" stroke-miterlimit="1.45" shape-rendering="geometricPrecision" font-family="sans-serif" transform="matrix(0,1,-1,0,148.82,226.6832)" stroke-linecap="butt">
      <text x="2" xml:space="preserve" y="13.1387" clip-path="url(#clipPath6)" stroke="none">shoppers</text>
    </g>
  </g>
</svg>
