<?xml version="1.0" encoding="UTF-8"?><svg xmlns="http://www.w3.org/2000/svg" xmlns:xlink="http://www.w3.org/1999/xlink" fill-opacity="1" color-rendering="auto" color-interpolation="auto" stroke="black" text-rendering="auto" stroke-linecap="square" width="235" stroke-miterlimit="10" stroke-opacity="1" shape-rendering="auto" fill="black" stroke-dasharray="none" font-weight="normal" stroke-width="1" height="98" font-family="'Dialog'" font-style="normal" stroke-linejoin="miter" font-size="12" stroke-dashoffset="0" image-rendering="auto">
  <!--Generated by ySVG 2.5-->
  <defs id="genericDefs"/>
  <g>
    <defs id="defs1">
      <clipPath clipPathUnits="userSpaceOnUse" id="clipPath1">
        <path d="M0 0 L235 0 L235 98 L0 98 L0 0 Z"/>
      </clipPath>
      <clipPath clipPathUnits="userSpaceOnUse" id="clipPath2">
        <path d="M551 236 L786 236 L786 334 L551 334 L551 236 Z"/>
      </clipPath>
    </defs>
    <g fill="white" text-rendering="geometricPrecision" shape-rendering="geometricPrecision" transform="translate(-551,-236)" stroke="white">
      <rect x="551" width="235" height="98" y="236" clip-path="url(#clipPath2)" stroke="none"/>
    </g>
    <g fill="rgb(255,204,0)" text-rendering="geometricPrecision" shape-rendering="geometricPrecision" transform="matrix(1,0,0,1,-551,-236)" stroke="rgb(255,204,0)">
      <rect x="566.5" y="251.5" clip-path="url(#clipPath2)" width="67" rx="4" ry="4" height="67" stroke="none"/>
    </g>
    <g font-size="40" stroke-linecap="butt" transform="matrix(1,0,0,1,-551,-236)" text-rendering="geometricPrecision" font-family="'Te X Gyre Bonum'" shape-rendering="geometricPrecision" stroke-miterlimit="1.45">
      <text x="586.4" xml:space="preserve" y="301.02" clip-path="url(#clipPath2)" stroke="none">A</text>
      <rect x="566.5" y="251.5" clip-path="url(#clipPath2)" fill="none" width="67" rx="4" ry="4" height="67"/>
    </g>
    <g fill="lime" text-rendering="geometricPrecision" shape-rendering="geometricPrecision" transform="matrix(1,0,0,1,-551,-236)" stroke="lime">
      <rect x="703.5" y="251.5" clip-path="url(#clipPath2)" width="67" rx="4" ry="4" height="67" stroke="none"/>
    </g>
    <g font-size="40" stroke-linecap="butt" transform="matrix(1,0,0,1,-551,-236)" text-rendering="geometricPrecision" font-family="'Te X Gyre Bonum'" shape-rendering="geometricPrecision" stroke-miterlimit="1.45">
      <text x="722.2" xml:space="preserve" y="301.02" clip-path="url(#clipPath2)" stroke="none">C</text>
      <rect x="703.5" y="251.5" clip-path="url(#clipPath2)" fill="none" width="67" rx="4" ry="4" height="67"/>
      <path fill="none" d="M633.4807 285 L695.5129 285" clip-path="url(#clipPath2)"/>
      <path d="M703.5129 285 L691.5129 280 L694.5129 285 L691.5129 290 Z" clip-path="url(#clipPath2)" stroke="none"/>
      <text x="639.749" font-size="12" y="279.1543" clip-path="url(#clipPath2)" font-family="sans-serif" stroke="none" xml:space="preserve">shoppers</text>
    </g>
  </g>
</svg>
