<?xml version="1.0" encoding="UTF-8"?><svg xmlns="http://www.w3.org/2000/svg" xmlns:xlink="http://www.w3.org/1999/xlink" fill-opacity="1" color-rendering="auto" color-interpolation="auto" stroke="black" text-rendering="auto" stroke-linecap="square" width="269" stroke-miterlimit="10" stroke-opacity="1" shape-rendering="auto" fill="black" stroke-dasharray="none" font-weight="normal" stroke-width="1" height="152" font-family="'Dialog'" font-style="normal" stroke-linejoin="miter" font-size="12" stroke-dashoffset="0" image-rendering="auto">
  <!--Generated by ySVG 2.5-->
  <defs id="genericDefs"/>
  <g>
    <defs id="defs1">
      <clipPath clipPathUnits="userSpaceOnUse" id="clipPath1">
        <path d="M0 0 L269 0 L269 152 L0 152 L0 0 Z"/>
      </clipPath>
      <clipPath clipPathUnits="userSpaceOnUse" id="clipPath2">
        <path d="M551 205 L820 205 L820 357 L551 357 L551 205 Z"/>
      </clipPath>
    </defs>
    <g fill="white" text-rendering="geometricPrecision" shape-rendering="geometricPrecision" transform="translate(-551,-205)" stroke="white">
      <rect x="551" width="269" height="152" y="205" clip-path="url(#clipPath2)" stroke="none"/>
    </g>
    <g fill="rgb(255,204,0)" text-rendering="geometricPrecision" shape-rendering="geometricPrecision" transform="matrix(1,0,0,1,-551,-205)" stroke="rgb(255,204,0)">
      <rect x="566.5" y="251.5" clip-path="url(#clipPath2)" width="67" rx="4" ry="4" height="67" stroke="none"/>
    </g>
    <g font-size="40" stroke-linecap="butt" transform="matrix(1,0,0,1,-551,-205)" text-rendering="geometricPrecision" font-family="'Te X Gyre Bonum'" shape-rendering="geometricPrecision" stroke-miterlimit="1.45">
      <text x="586.4" xml:space="preserve" y="301.02" clip-path="url(#clipPath2)" stroke="none">A</text>
      <rect x="566.5" y="251.5" clip-path="url(#clipPath2)" fill="none" width="67" rx="4" ry="4" height="67"/>
    </g>
    <g fill="rgb(255,102,0)" text-rendering="geometricPrecision" shape-rendering="geometricPrecision" transform="matrix(1,0,0,1,-551,-205)" stroke="rgb(255,102,0)">
      <rect x="737.936" y="251.5" clip-path="url(#clipPath2)" width="67" rx="4" ry="4" height="67" stroke="none"/>
    </g>
    <g font-size="40" stroke-linecap="butt" transform="matrix(1,0,0,1,-551,-205)" text-rendering="geometricPrecision" font-family="'Te X Gyre Bonum'" shape-rendering="geometricPrecision" stroke-miterlimit="1.45">
      <text x="756.636" xml:space="preserve" y="301.02" clip-path="url(#clipPath2)" stroke="none">B</text>
      <rect x="737.936" y="251.5" clip-path="url(#clipPath2)" fill="none" width="67" rx="4" ry="4" height="67"/>
      <path fill="none" d="M633.5255 258.5536 L642.859 253.3909 L653.5737 248.7813 L664.2885 245.4887 L675.0032 243.5131 L685.718 242.8546 L696.4327 243.5131 L707.1475 245.4887 L717.8622 248.7813 L728.577 253.3909 L730.9101 254.6815" clip-path="url(#clipPath2)"/>
      <path d="M737.9105 258.5536 L729.83 248.3701 L730.035 254.1974 L724.9897 257.1206 Z" clip-path="url(#clipPath2)" stroke="none"/>
      <text x="653.3204" font-size="12" y="233.4657" clip-path="url(#clipPath2)" font-family="sans-serif" stroke="none" xml:space="preserve">shoppers</text>
      <path fill="none" d="M633.5255 305.8786 L642.859 310.5076 L653.5737 314.2275 L664.2885 316.8846 L675.0032 318.4788 L685.718 319.0102 L696.4327 318.4788 L707.1475 316.8846 L717.8622 314.2275 L728.577 310.5076 L730.7435 309.4331" clip-path="url(#clipPath2)"/>
      <path d="M737.9105 305.8786 L724.9385 306.731 L729.8477 309.8774 L729.3816 315.6897 Z" clip-path="url(#clipPath2)" stroke="none"/>
      <text x="664.7725" font-size="12" y="336.4239" clip-path="url(#clipPath2)" font-family="sans-serif" stroke="none" xml:space="preserve">workers</text>
    </g>
  </g>
</svg>
