<?xml version="1.0" encoding="UTF-8" standalone="no"?>
<!-- Created with Inkscape (http://www.inkscape.org/) -->

<svg
   xmlns:dc="http://purl.org/dc/elements/1.1/"
   xmlns:cc="http://creativecommons.org/ns#"
   xmlns:rdf="http://www.w3.org/1999/02/22-rdf-syntax-ns#"
   xmlns:svg="http://www.w3.org/2000/svg"
   xmlns="http://www.w3.org/2000/svg"
   xmlns:sodipodi="http://sodipodi.sourceforge.net/DTD/sodipodi-0.dtd"
   xmlns:inkscape="http://www.inkscape.org/namespaces/inkscape"
   width="355.69733"
   height="292.15823"
   id="svg2"
   version="1.1"
   inkscape:version="0.48.4 r9939"
   sodipodi:docname="particles.svg">
  <defs
     id="defs4" />
  <sodipodi:namedview
     id="base"
     pagecolor="#ffffff"
     bordercolor="#666666"
     borderopacity="1.0"
     inkscape:pageopacity="0.0"
     inkscape:pageshadow="2"
     inkscape:zoom="0.98994949"
     inkscape:cx="74.671923"
     inkscape:cy="321.19986"
     inkscape:document-units="px"
     inkscape:current-layer="layer1"
     showgrid="false"
     fit-margin-top="0"
     fit-margin-left="0"
     fit-margin-right="0"
     fit-margin-bottom="0"
     inkscape:window-width="1920"
     inkscape:window-height="1025"
     inkscape:window-x="0"
     inkscape:window-y="27"
     inkscape:window-maximized="1" />
  <metadata
     id="metadata7">
    <rdf:RDF>
      <cc:Work
         rdf:about="">
        <dc:format>image/svg+xml</dc:format>
        <dc:type
           rdf:resource="http://purl.org/dc/dcmitype/StillImage" />
        <dc:title />
      </cc:Work>
    </rdf:RDF>
  </metadata>
  <g
     inkscape:label="Layer 1"
     inkscape:groupmode="layer"
     id="layer1"
     transform="translate(-6.9458501,-479.49825)">
    <path
       sodipodi:type="arc"
       style="fill:#ffaaaa;fill-rule:evenodd;stroke:#000000;stroke-width:1px;stroke-linecap:butt;stroke-linejoin:miter;stroke-opacity:1"
       id="path2985"
       sodipodi:cx="177.28177"
       sodipodi:cy="361.92291"
       sodipodi:rx="48.992397"
       sodipodi:ry="48.992397"
       d="m 226.27417,361.92291 c 0,27.05776 -21.93465,48.9924 -48.9924,48.9924 -27.05776,0 -48.9924,-21.93464 -48.9924,-48.9924 0,-27.05775 21.93464,-48.99239 48.9924,-48.99239 27.05775,0 48.9924,21.93464 48.9924,48.99239 z"
       transform="matrix(0.49515897,0,0,0.49515897,102.04524,396.06854)" />
    <path
       transform="matrix(0.49515897,0,0,0.49515897,132.80669,410.32384)"
       sodipodi:type="arc"
       style="fill:#ffaaaa;fill-rule:evenodd;stroke:#000000;stroke-width:1px;stroke-linecap:butt;stroke-linejoin:miter;stroke-opacity:1"
       id="path2985-2"
       sodipodi:cx="177.28177"
       sodipodi:cy="361.92291"
       sodipodi:rx="48.992397"
       sodipodi:ry="48.992397"
       d="m 226.27417,361.92291 c 0,27.05776 -21.93465,48.9924 -48.9924,48.9924 -27.05776,0 -48.9924,-21.93464 -48.9924,-48.9924 0,-27.05775 21.93464,-48.99239 48.9924,-48.99239 27.05775,0 48.9924,21.93464 48.9924,48.99239 z" />
    <path
       transform="matrix(0.49515897,0,0,0.49515897,184.82604,437.33389)"
       sodipodi:type="arc"
       style="fill:#ffaaaa;fill-rule:evenodd;stroke:#000000;stroke-width:1px;stroke-linecap:butt;stroke-linejoin:miter;stroke-opacity:1"
       id="path2985-2-8-9"
       sodipodi:cx="177.28177"
       sodipodi:cy="361.92291"
       sodipodi:rx="48.992397"
       sodipodi:ry="48.992397"
       d="m 226.27417,361.92291 c 0,27.05776 -21.93465,48.9924 -48.9924,48.9924 -27.05776,0 -48.9924,-21.93464 -48.9924,-48.9924 0,-27.05775 21.93464,-48.99239 48.9924,-48.99239 27.05775,0 48.9924,21.93464 48.9924,48.99239 z" />
    <path
       transform="matrix(0.49515897,0,0,0.49515897,208.33479,451.83929)"
       sodipodi:type="arc"
       style="fill:#ffaaaa;fill-rule:evenodd;stroke:#000000;stroke-width:1px;stroke-linecap:butt;stroke-linejoin:miter;stroke-opacity:1"
       id="path2985-2-8-9-4"
       sodipodi:cx="177.28177"
       sodipodi:cy="361.92291"
       sodipodi:rx="48.992397"
       sodipodi:ry="48.992397"
       d="m 226.27417,361.92291 c 0,27.05776 -21.93465,48.9924 -48.9924,48.9924 -27.05776,0 -48.9924,-21.93464 -48.9924,-48.9924 0,-27.05775 21.93464,-48.99239 48.9924,-48.99239 27.05775,0 48.9924,21.93464 48.9924,48.99239 z" />
    <path
       transform="matrix(0.49515897,0,0,0.49515897,229.3426,465.8445)"
       sodipodi:type="arc"
       style="fill:#ffaaaa;fill-rule:evenodd;stroke:#000000;stroke-width:1px;stroke-linecap:butt;stroke-linejoin:miter;stroke-opacity:1"
       id="path2985-2-8-9-4-7"
       sodipodi:cx="177.28177"
       sodipodi:cy="361.92291"
       sodipodi:rx="48.992397"
       sodipodi:ry="48.992397"
       d="m 226.27417,361.92291 c 0,27.05776 -21.93465,48.9924 -48.9924,48.9924 -27.05776,0 -48.9924,-21.93464 -48.9924,-48.9924 0,-27.05775 21.93464,-48.99239 48.9924,-48.99239 27.05775,0 48.9924,21.93464 48.9924,48.99239 z" />
    <path
       transform="matrix(0.49515897,0,0,0.49515897,250.35042,480.85008)"
       sodipodi:type="arc"
       style="fill:#ffaaaa;fill-rule:evenodd;stroke:#000000;stroke-width:1px;stroke-linecap:butt;stroke-linejoin:miter;stroke-opacity:1"
       id="path2985-2-8-9-4-7-4"
       sodipodi:cx="177.28177"
       sodipodi:cy="361.92291"
       sodipodi:rx="48.992397"
       sodipodi:ry="48.992397"
       d="m 226.27417,361.92291 c 0,27.05776 -21.93465,48.9924 -48.9924,48.9924 -27.05776,0 -48.9924,-21.93464 -48.9924,-48.9924 0,-27.05775 21.93464,-48.99239 48.9924,-48.99239 27.05775,0 48.9924,21.93464 48.9924,48.99239 z" />
    <path
       transform="matrix(0.49515897,0,0,0.49515897,69.15801,412.94982)"
       sodipodi:type="arc"
       style="fill:#ffaaaa;fill-rule:evenodd;stroke:#000000;stroke-width:1px;stroke-linecap:butt;stroke-linejoin:miter;stroke-opacity:1"
       id="path2985-7"
       sodipodi:cx="177.28177"
       sodipodi:cy="361.92291"
       sodipodi:rx="48.992397"
       sodipodi:ry="48.992397"
       d="m 226.27417,361.92291 c 0,27.05776 -21.93465,48.9924 -48.9924,48.9924 -27.05776,0 -48.9924,-21.93464 -48.9924,-48.9924 0,-27.05775 21.93464,-48.99239 48.9924,-48.99239 27.05775,0 48.9924,21.93464 48.9924,48.99239 z" />
    <path
       transform="matrix(0.49515897,0,0,0.49515897,99.919454,427.20513)"
       sodipodi:type="arc"
       style="fill:#ffaaaa;fill-rule:evenodd;stroke:#000000;stroke-width:1px;stroke-linecap:butt;stroke-linejoin:miter;stroke-opacity:1"
       id="path2985-2-0"
       sodipodi:cx="177.28177"
       sodipodi:cy="361.92291"
       sodipodi:rx="48.992397"
       sodipodi:ry="48.992397"
       d="m 226.27417,361.92291 c 0,27.05776 -21.93465,48.9924 -48.9924,48.9924 -27.05776,0 -48.9924,-21.93464 -48.9924,-48.9924 0,-27.05775 21.93464,-48.99239 48.9924,-48.99239 27.05775,0 48.9924,21.93464 48.9924,48.99239 z" />
    <path
       transform="matrix(0.49515897,0,0,0.49515897,127.92987,441.71052)"
       sodipodi:type="arc"
       style="fill:#ffaaaa;fill-rule:evenodd;stroke:#000000;stroke-width:1px;stroke-linecap:butt;stroke-linejoin:miter;stroke-opacity:1"
       id="path2985-2-8-3"
       sodipodi:cx="177.28177"
       sodipodi:cy="361.92291"
       sodipodi:rx="48.992397"
       sodipodi:ry="48.992397"
       d="m 226.27417,361.92291 c 0,27.05776 -21.93465,48.9924 -48.9924,48.9924 -27.05776,0 -48.9924,-21.93464 -48.9924,-48.9924 0,-27.05775 21.93464,-48.99239 48.9924,-48.99239 27.05775,0 48.9924,21.93464 48.9924,48.99239 z" />
    <path
       transform="matrix(0.49515897,0,0,0.49515897,151.93881,454.21518)"
       sodipodi:type="arc"
       style="fill:#ffaaaa;fill-rule:evenodd;stroke:#000000;stroke-width:1px;stroke-linecap:butt;stroke-linejoin:miter;stroke-opacity:1"
       id="path2985-2-8-9-3"
       sodipodi:cx="177.28177"
       sodipodi:cy="361.92291"
       sodipodi:rx="48.992397"
       sodipodi:ry="48.992397"
       d="m 226.27417,361.92291 c 0,27.05776 -21.93465,48.9924 -48.9924,48.9924 -27.05776,0 -48.9924,-21.93464 -48.9924,-48.9924 0,-27.05775 21.93464,-48.99239 48.9924,-48.99239 27.05775,0 48.9924,21.93464 48.9924,48.99239 z" />
    <path
       transform="matrix(0.49515897,0,0,0.49515897,175.44755,468.72057)"
       sodipodi:type="arc"
       style="fill:#ffaaaa;fill-rule:evenodd;stroke:#000000;stroke-width:1px;stroke-linecap:butt;stroke-linejoin:miter;stroke-opacity:1"
       id="path2985-2-8-9-4-4"
       sodipodi:cx="177.28177"
       sodipodi:cy="361.92291"
       sodipodi:rx="48.992397"
       sodipodi:ry="48.992397"
       d="m 226.27417,361.92291 c 0,27.05776 -21.93465,48.9924 -48.9924,48.9924 -27.05776,0 -48.9924,-21.93464 -48.9924,-48.9924 0,-27.05775 21.93464,-48.99239 48.9924,-48.99239 27.05775,0 48.9924,21.93464 48.9924,48.99239 z" />
    <path
       transform="matrix(0.49515897,0,0,0.49515897,196.45537,482.72578)"
       sodipodi:type="arc"
       style="fill:#ffaaaa;fill-rule:evenodd;stroke:#000000;stroke-width:1px;stroke-linecap:butt;stroke-linejoin:miter;stroke-opacity:1"
       id="path2985-2-8-9-4-7-9"
       sodipodi:cx="177.28177"
       sodipodi:cy="361.92291"
       sodipodi:rx="48.992397"
       sodipodi:ry="48.992397"
       d="m 226.27417,361.92291 c 0,27.05776 -21.93465,48.9924 -48.9924,48.9924 -27.05776,0 -48.9924,-21.93464 -48.9924,-48.9924 0,-27.05775 21.93464,-48.99239 48.9924,-48.99239 27.05775,0 48.9924,21.93464 48.9924,48.99239 z" />
    <path
       transform="matrix(0.49515897,0,0,0.49515897,217.46319,497.73136)"
       sodipodi:type="arc"
       style="fill:#ffaaaa;fill-rule:evenodd;stroke:#000000;stroke-width:1px;stroke-linecap:butt;stroke-linejoin:miter;stroke-opacity:1"
       id="path2985-2-8-9-4-7-4-0"
       sodipodi:cx="177.28177"
       sodipodi:cy="361.92291"
       sodipodi:rx="48.992397"
       sodipodi:ry="48.992397"
       d="m 226.27417,361.92291 c 0,27.05776 -21.93465,48.9924 -48.9924,48.9924 -27.05776,0 -48.9924,-21.93464 -48.9924,-48.9924 0,-27.05775 21.93464,-48.99239 48.9924,-48.99239 27.05775,0 48.9924,21.93464 48.9924,48.99239 z" />
    <path
       transform="matrix(0.49515897,0,0,0.49515897,38.146471,430.45633)"
       sodipodi:type="arc"
       style="fill:#ffaaaa;fill-rule:evenodd;stroke:#000000;stroke-width:1px;stroke-linecap:butt;stroke-linejoin:miter;stroke-opacity:1"
       id="path2985-7-1"
       sodipodi:cx="177.28177"
       sodipodi:cy="361.92291"
       sodipodi:rx="48.992397"
       sodipodi:ry="48.992397"
       d="m 226.27417,361.92291 c 0,27.05776 -21.93465,48.9924 -48.9924,48.9924 -27.05776,0 -48.9924,-21.93464 -48.9924,-48.9924 0,-27.05775 21.93464,-48.99239 48.9924,-48.99239 27.05775,0 48.9924,21.93464 48.9924,48.99239 z" />
    <path
       transform="matrix(0.49515897,0,0,0.49515897,68.907915,444.71164)"
       sodipodi:type="arc"
       style="fill:#ffaaaa;fill-rule:evenodd;stroke:#000000;stroke-width:1px;stroke-linecap:butt;stroke-linejoin:miter;stroke-opacity:1"
       id="path2985-2-0-0"
       sodipodi:cx="177.28177"
       sodipodi:cy="361.92291"
       sodipodi:rx="48.992397"
       sodipodi:ry="48.992397"
       d="m 226.27417,361.92291 c 0,27.05776 -21.93465,48.9924 -48.9924,48.9924 -27.05776,0 -48.9924,-21.93464 -48.9924,-48.9924 0,-27.05775 21.93464,-48.99239 48.9924,-48.99239 27.05775,0 48.9924,21.93464 48.9924,48.99239 z" />
    <path
       transform="matrix(0.49515897,0,0,0.49515897,96.91833,459.21703)"
       sodipodi:type="arc"
       style="fill:#ffaaaa;fill-rule:evenodd;stroke:#000000;stroke-width:1px;stroke-linecap:butt;stroke-linejoin:miter;stroke-opacity:1"
       id="path2985-2-8-3-8"
       sodipodi:cx="177.28177"
       sodipodi:cy="361.92291"
       sodipodi:rx="48.992397"
       sodipodi:ry="48.992397"
       d="m 226.27417,361.92291 c 0,27.05776 -21.93465,48.9924 -48.9924,48.9924 -27.05776,0 -48.9924,-21.93464 -48.9924,-48.9924 0,-27.05775 21.93464,-48.99239 48.9924,-48.99239 27.05775,0 48.9924,21.93464 48.9924,48.99239 z" />
    <path
       transform="matrix(0.49515897,0,0,0.49515897,120.92727,471.7217)"
       sodipodi:type="arc"
       style="fill:#ffaaaa;fill-rule:evenodd;stroke:#000000;stroke-width:1px;stroke-linecap:butt;stroke-linejoin:miter;stroke-opacity:1"
       id="path2985-2-8-9-3-0"
       sodipodi:cx="177.28177"
       sodipodi:cy="361.92291"
       sodipodi:rx="48.992397"
       sodipodi:ry="48.992397"
       d="m 226.27417,361.92291 c 0,27.05776 -21.93465,48.9924 -48.9924,48.9924 -27.05776,0 -48.9924,-21.93464 -48.9924,-48.9924 0,-27.05775 21.93464,-48.99239 48.9924,-48.99239 27.05775,0 48.9924,21.93464 48.9924,48.99239 z" />
    <path
       transform="matrix(0.49515897,0,0,0.49515897,144.43601,486.22709)"
       sodipodi:type="arc"
       style="fill:#ffaaaa;fill-rule:evenodd;stroke:#000000;stroke-width:1px;stroke-linecap:butt;stroke-linejoin:miter;stroke-opacity:1"
       id="path2985-2-8-9-4-4-1"
       sodipodi:cx="177.28177"
       sodipodi:cy="361.92291"
       sodipodi:rx="48.992397"
       sodipodi:ry="48.992397"
       d="m 226.27417,361.92291 c 0,27.05776 -21.93465,48.9924 -48.9924,48.9924 -27.05776,0 -48.9924,-21.93464 -48.9924,-48.9924 0,-27.05775 21.93464,-48.99239 48.9924,-48.99239 27.05775,0 48.9924,21.93464 48.9924,48.99239 z" />
    <path
       transform="matrix(0.49515897,0,0,0.49515897,165.44383,500.2323)"
       sodipodi:type="arc"
       style="fill:#ffaaaa;fill-rule:evenodd;stroke:#000000;stroke-width:1px;stroke-linecap:butt;stroke-linejoin:miter;stroke-opacity:1"
       id="path2985-2-8-9-4-7-9-2"
       sodipodi:cx="177.28177"
       sodipodi:cy="361.92291"
       sodipodi:rx="48.992397"
       sodipodi:ry="48.992397"
       d="m 226.27417,361.92291 c 0,27.05776 -21.93465,48.9924 -48.9924,48.9924 -27.05776,0 -48.9924,-21.93464 -48.9924,-48.9924 0,-27.05775 21.93464,-48.99239 48.9924,-48.99239 27.05775,0 48.9924,21.93464 48.9924,48.99239 z" />
    <path
       transform="matrix(0.49515897,0,0,0.49515897,186.45164,515.23788)"
       sodipodi:type="arc"
       style="fill:#ffaaaa;fill-rule:evenodd;stroke:#000000;stroke-width:1px;stroke-linecap:butt;stroke-linejoin:miter;stroke-opacity:1"
       id="path2985-2-8-9-4-7-4-0-6"
       sodipodi:cx="177.28177"
       sodipodi:cy="361.92291"
       sodipodi:rx="48.992397"
       sodipodi:ry="48.992397"
       d="m 226.27417,361.92291 c 0,27.05776 -21.93465,48.9924 -48.9924,48.9924 -27.05776,0 -48.9924,-21.93464 -48.9924,-48.9924 0,-27.05775 21.93464,-48.99239 48.9924,-48.99239 27.05775,0 48.9924,21.93464 48.9924,48.99239 z" />
    <path
       transform="matrix(0.49515897,0,0,0.49515897,7.5725883,448.77564)"
       sodipodi:type="arc"
       style="fill:#ffaaaa;fill-rule:evenodd;stroke:#000000;stroke-width:1px;stroke-linecap:butt;stroke-linejoin:miter;stroke-opacity:1"
       id="path2985-8"
       sodipodi:cx="177.28177"
       sodipodi:cy="361.92291"
       sodipodi:rx="48.992397"
       sodipodi:ry="48.992397"
       d="m 226.27417,361.92291 c 0,27.05776 -21.93465,48.9924 -48.9924,48.9924 -27.05776,0 -48.9924,-21.93464 -48.9924,-48.9924 0,-27.05775 21.93464,-48.99239 48.9924,-48.99239 27.05775,0 48.9924,21.93464 48.9924,48.99239 z" />
    <path
       transform="matrix(0.49515897,0,0,0.49515897,38.334037,463.03095)"
       sodipodi:type="arc"
       style="fill:#ffaaaa;fill-rule:evenodd;stroke:#000000;stroke-width:1px;stroke-linecap:butt;stroke-linejoin:miter;stroke-opacity:1"
       id="path2985-2-02"
       sodipodi:cx="177.28177"
       sodipodi:cy="361.92291"
       sodipodi:rx="48.992397"
       sodipodi:ry="48.992397"
       d="m 226.27417,361.92291 c 0,27.05776 -21.93465,48.9924 -48.9924,48.9924 -27.05776,0 -48.9924,-21.93464 -48.9924,-48.9924 0,-27.05775 21.93464,-48.99239 48.9924,-48.99239 27.05775,0 48.9924,21.93464 48.9924,48.99239 z" />
    <path
       transform="matrix(0.49515897,0,0,0.49515897,66.344462,477.53634)"
       sodipodi:type="arc"
       style="fill:#ffaaaa;fill-rule:evenodd;stroke:#000000;stroke-width:1px;stroke-linecap:butt;stroke-linejoin:miter;stroke-opacity:1"
       id="path2985-2-8-7"
       sodipodi:cx="177.28177"
       sodipodi:cy="361.92291"
       sodipodi:rx="48.992397"
       sodipodi:ry="48.992397"
       d="m 226.27417,361.92291 c 0,27.05776 -21.93465,48.9924 -48.9924,48.9924 -27.05776,0 -48.9924,-21.93464 -48.9924,-48.9924 0,-27.05775 21.93464,-48.99239 48.9924,-48.99239 27.05775,0 48.9924,21.93464 48.9924,48.99239 z" />
    <path
       transform="matrix(0.49515897,0,0,0.49515897,90.353393,490.041)"
       sodipodi:type="arc"
       style="fill:#ffaaaa;fill-rule:evenodd;stroke:#000000;stroke-width:1px;stroke-linecap:butt;stroke-linejoin:miter;stroke-opacity:1"
       id="path2985-2-8-9-7"
       sodipodi:cx="177.28177"
       sodipodi:cy="361.92291"
       sodipodi:rx="48.992397"
       sodipodi:ry="48.992397"
       d="m 226.27417,361.92291 c 0,27.05776 -21.93465,48.9924 -48.9924,48.9924 -27.05776,0 -48.9924,-21.93464 -48.9924,-48.9924 0,-27.05775 21.93464,-48.99239 48.9924,-48.99239 27.05775,0 48.9924,21.93464 48.9924,48.99239 z" />
    <path
       transform="matrix(0.49515897,0,0,0.49515897,113.86214,504.54639)"
       sodipodi:type="arc"
       style="fill:#ffaaaa;fill-rule:evenodd;stroke:#000000;stroke-width:1px;stroke-linecap:butt;stroke-linejoin:miter;stroke-opacity:1"
       id="path2985-2-8-9-4-2"
       sodipodi:cx="177.28177"
       sodipodi:cy="361.92291"
       sodipodi:rx="48.992397"
       sodipodi:ry="48.992397"
       d="m 226.27417,361.92291 c 0,27.05776 -21.93465,48.9924 -48.9924,48.9924 -27.05776,0 -48.9924,-21.93464 -48.9924,-48.9924 0,-27.05775 21.93464,-48.99239 48.9924,-48.99239 27.05775,0 48.9924,21.93464 48.9924,48.99239 z" />
    <path
       transform="matrix(0.49515897,0,0,0.49515897,134.86995,518.5516)"
       sodipodi:type="arc"
       style="fill:#ffaaaa;fill-rule:evenodd;stroke:#000000;stroke-width:1px;stroke-linecap:butt;stroke-linejoin:miter;stroke-opacity:1"
       id="path2985-2-8-9-4-7-1"
       sodipodi:cx="177.28177"
       sodipodi:cy="361.92291"
       sodipodi:rx="48.992397"
       sodipodi:ry="48.992397"
       d="m 226.27417,361.92291 c 0,27.05776 -21.93465,48.9924 -48.9924,48.9924 -27.05776,0 -48.9924,-21.93464 -48.9924,-48.9924 0,-27.05775 21.93464,-48.99239 48.9924,-48.99239 27.05775,0 48.9924,21.93464 48.9924,48.99239 z" />
    <path
       transform="matrix(0.49515897,0,0,0.49515897,155.87777,533.55718)"
       sodipodi:type="arc"
       style="fill:#ffaaaa;fill-rule:evenodd;stroke:#000000;stroke-width:1px;stroke-linecap:butt;stroke-linejoin:miter;stroke-opacity:1"
       id="path2985-2-8-9-4-7-4-8"
       sodipodi:cx="177.28177"
       sodipodi:cy="361.92291"
       sodipodi:rx="48.992397"
       sodipodi:ry="48.992397"
       d="m 226.27417,361.92291 c 0,27.05776 -21.93465,48.9924 -48.9924,48.9924 -27.05776,0 -48.9924,-21.93464 -48.9924,-48.9924 0,-27.05775 21.93464,-48.99239 48.9924,-48.99239 27.05775,0 48.9924,21.93464 48.9924,48.99239 z" />
    <path
       transform="matrix(0.49515897,0,0,0.49515897,-25.314643,465.65692)"
       sodipodi:type="arc"
       style="fill:#ffaaaa;fill-rule:evenodd;stroke:#000000;stroke-width:1px;stroke-linecap:butt;stroke-linejoin:miter;stroke-opacity:1"
       id="path2985-7-7"
       sodipodi:cx="177.28177"
       sodipodi:cy="361.92291"
       sodipodi:rx="48.992397"
       sodipodi:ry="48.992397"
       d="m 226.27417,361.92291 c 0,27.05776 -21.93465,48.9924 -48.9924,48.9924 -27.05776,0 -48.9924,-21.93464 -48.9924,-48.9924 0,-27.05775 21.93464,-48.99239 48.9924,-48.99239 27.05775,0 48.9924,21.93464 48.9924,48.99239 z" />
    <path
       transform="matrix(0.49515897,0,0,0.49515897,5.4468015,479.91223)"
       sodipodi:type="arc"
       style="fill:#ffaaaa;fill-rule:evenodd;stroke:#000000;stroke-width:1px;stroke-linecap:butt;stroke-linejoin:miter;stroke-opacity:1"
       id="path2985-2-0-6"
       sodipodi:cx="177.28177"
       sodipodi:cy="361.92291"
       sodipodi:rx="48.992397"
       sodipodi:ry="48.992397"
       d="m 226.27417,361.92291 c 0,27.05776 -21.93465,48.9924 -48.9924,48.9924 -27.05776,0 -48.9924,-21.93464 -48.9924,-48.9924 0,-27.05775 21.93464,-48.99239 48.9924,-48.99239 27.05775,0 48.9924,21.93464 48.9924,48.99239 z" />
    <path
       transform="matrix(0.49515897,0,0,0.49515897,33.457221,494.41762)"
       sodipodi:type="arc"
       style="fill:#ffaaaa;fill-rule:evenodd;stroke:#000000;stroke-width:1px;stroke-linecap:butt;stroke-linejoin:miter;stroke-opacity:1"
       id="path2985-2-8-3-6"
       sodipodi:cx="177.28177"
       sodipodi:cy="361.92291"
       sodipodi:rx="48.992397"
       sodipodi:ry="48.992397"
       d="m 226.27417,361.92291 c 0,27.05776 -21.93465,48.9924 -48.9924,48.9924 -27.05776,0 -48.9924,-21.93464 -48.9924,-48.9924 0,-27.05775 21.93464,-48.99239 48.9924,-48.99239 27.05775,0 48.9924,21.93464 48.9924,48.99239 z" />
    <path
       transform="matrix(0.49515897,0,0,0.49515897,57.466157,506.92228)"
       sodipodi:type="arc"
       style="fill:#ffaaaa;fill-rule:evenodd;stroke:#000000;stroke-width:1px;stroke-linecap:butt;stroke-linejoin:miter;stroke-opacity:1"
       id="path2985-2-8-9-3-1"
       sodipodi:cx="177.28177"
       sodipodi:cy="361.92291"
       sodipodi:rx="48.992397"
       sodipodi:ry="48.992397"
       d="m 226.27417,361.92291 c 0,27.05776 -21.93465,48.9924 -48.9924,48.9924 -27.05776,0 -48.9924,-21.93464 -48.9924,-48.9924 0,-27.05775 21.93464,-48.99239 48.9924,-48.99239 27.05775,0 48.9924,21.93464 48.9924,48.99239 z" />
    <path
       transform="matrix(0.49515897,0,0,0.49515897,80.974904,521.42767)"
       sodipodi:type="arc"
       style="fill:#ffaaaa;fill-rule:evenodd;stroke:#000000;stroke-width:1px;stroke-linecap:butt;stroke-linejoin:miter;stroke-opacity:1"
       id="path2985-2-8-9-4-4-6"
       sodipodi:cx="177.28177"
       sodipodi:cy="361.92291"
       sodipodi:rx="48.992397"
       sodipodi:ry="48.992397"
       d="m 226.27417,361.92291 c 0,27.05776 -21.93465,48.9924 -48.9924,48.9924 -27.05776,0 -48.9924,-21.93464 -48.9924,-48.9924 0,-27.05775 21.93464,-48.99239 48.9924,-48.99239 27.05775,0 48.9924,21.93464 48.9924,48.99239 z" />
    <path
       transform="matrix(0.49515897,0,0,0.49515897,101.98272,535.43288)"
       sodipodi:type="arc"
       style="fill:#ffaaaa;fill-rule:evenodd;stroke:#000000;stroke-width:1px;stroke-linecap:butt;stroke-linejoin:miter;stroke-opacity:1"
       id="path2985-2-8-9-4-7-9-5"
       sodipodi:cx="177.28177"
       sodipodi:cy="361.92291"
       sodipodi:rx="48.992397"
       sodipodi:ry="48.992397"
       d="m 226.27417,361.92291 c 0,27.05776 -21.93465,48.9924 -48.9924,48.9924 -27.05776,0 -48.9924,-21.93464 -48.9924,-48.9924 0,-27.05775 21.93464,-48.99239 48.9924,-48.99239 27.05775,0 48.9924,21.93464 48.9924,48.99239 z" />
    <path
       transform="matrix(0.49515897,0,0,0.49515897,122.99054,550.43846)"
       sodipodi:type="arc"
       style="fill:#ffaaaa;fill-rule:evenodd;stroke:#000000;stroke-width:1px;stroke-linecap:butt;stroke-linejoin:miter;stroke-opacity:1"
       id="path2985-2-8-9-4-7-4-0-5"
       sodipodi:cx="177.28177"
       sodipodi:cy="361.92291"
       sodipodi:rx="48.992397"
       sodipodi:ry="48.992397"
       d="m 226.27417,361.92291 c 0,27.05776 -21.93465,48.9924 -48.9924,48.9924 -27.05776,0 -48.9924,-21.93464 -48.9924,-48.9924 0,-27.05775 21.93464,-48.99239 48.9924,-48.99239 27.05775,0 48.9924,21.93464 48.9924,48.99239 z" />
    <path
       transform="matrix(0.49515897,0,0,0.49515897,-56.326182,483.16343)"
       sodipodi:type="arc"
       style="fill:#ffaaaa;fill-rule:evenodd;stroke:#000000;stroke-width:1px;stroke-linecap:butt;stroke-linejoin:miter;stroke-opacity:1"
       id="path2985-7-1-5"
       sodipodi:cx="177.28177"
       sodipodi:cy="361.92291"
       sodipodi:rx="48.992397"
       sodipodi:ry="48.992397"
       d="m 226.27417,361.92291 c 0,27.05776 -21.93465,48.9924 -48.9924,48.9924 -27.05776,0 -48.9924,-21.93464 -48.9924,-48.9924 0,-27.05775 21.93464,-48.99239 48.9924,-48.99239 27.05775,0 48.9924,21.93464 48.9924,48.99239 z" />
    <path
       transform="matrix(0.49515897,0,0,0.49515897,-25.564738,497.41874)"
       sodipodi:type="arc"
       style="fill:#ffaaaa;fill-rule:evenodd;stroke:#000000;stroke-width:1px;stroke-linecap:butt;stroke-linejoin:miter;stroke-opacity:1"
       id="path2985-2-0-0-1"
       sodipodi:cx="177.28177"
       sodipodi:cy="361.92291"
       sodipodi:rx="48.992397"
       sodipodi:ry="48.992397"
       d="m 226.27417,361.92291 c 0,27.05776 -21.93465,48.9924 -48.9924,48.9924 -27.05776,0 -48.9924,-21.93464 -48.9924,-48.9924 0,-27.05775 21.93464,-48.99239 48.9924,-48.99239 27.05775,0 48.9924,21.93464 48.9924,48.99239 z" />
    <path
       transform="matrix(0.49515897,0,0,0.49515897,2.4456777,511.92414)"
       sodipodi:type="arc"
       style="fill:#ffaaaa;fill-rule:evenodd;stroke:#000000;stroke-width:1px;stroke-linecap:butt;stroke-linejoin:miter;stroke-opacity:1"
       id="path2985-2-8-3-8-4"
       sodipodi:cx="177.28177"
       sodipodi:cy="361.92291"
       sodipodi:rx="48.992397"
       sodipodi:ry="48.992397"
       d="m 226.27417,361.92291 c 0,27.05776 -21.93465,48.9924 -48.9924,48.9924 -27.05776,0 -48.9924,-21.93464 -48.9924,-48.9924 0,-27.05775 21.93464,-48.99239 48.9924,-48.99239 27.05775,0 48.9924,21.93464 48.9924,48.99239 z" />
    <path
       transform="matrix(0.49515897,0,0,0.49515897,26.454614,524.4288)"
       sodipodi:type="arc"
       style="fill:#ffaaaa;fill-rule:evenodd;stroke:#000000;stroke-width:1px;stroke-linecap:butt;stroke-linejoin:miter;stroke-opacity:1"
       id="path2985-2-8-9-3-0-6"
       sodipodi:cx="177.28177"
       sodipodi:cy="361.92291"
       sodipodi:rx="48.992397"
       sodipodi:ry="48.992397"
       d="m 226.27417,361.92291 c 0,27.05776 -21.93465,48.9924 -48.9924,48.9924 -27.05776,0 -48.9924,-21.93464 -48.9924,-48.9924 0,-27.05775 21.93464,-48.99239 48.9924,-48.99239 27.05775,0 48.9924,21.93464 48.9924,48.99239 z" />
    <path
       transform="matrix(0.49515897,0,0,0.49515897,49.963356,538.93419)"
       sodipodi:type="arc"
       style="fill:#ffaaaa;fill-rule:evenodd;stroke:#000000;stroke-width:1px;stroke-linecap:butt;stroke-linejoin:miter;stroke-opacity:1"
       id="path2985-2-8-9-4-4-1-6"
       sodipodi:cx="177.28177"
       sodipodi:cy="361.92291"
       sodipodi:rx="48.992397"
       sodipodi:ry="48.992397"
       d="m 226.27417,361.92291 c 0,27.05776 -21.93465,48.9924 -48.9924,48.9924 -27.05776,0 -48.9924,-21.93464 -48.9924,-48.9924 0,-27.05775 21.93464,-48.99239 48.9924,-48.99239 27.05775,0 48.9924,21.93464 48.9924,48.99239 z" />
    <path
       transform="matrix(0.49515897,0,0,0.49515897,70.971178,552.9394)"
       sodipodi:type="arc"
       style="fill:#ffaaaa;fill-rule:evenodd;stroke:#000000;stroke-width:1px;stroke-linecap:butt;stroke-linejoin:miter;stroke-opacity:1"
       id="path2985-2-8-9-4-7-9-2-7"
       sodipodi:cx="177.28177"
       sodipodi:cy="361.92291"
       sodipodi:rx="48.992397"
       sodipodi:ry="48.992397"
       d="m 226.27417,361.92291 c 0,27.05776 -21.93465,48.9924 -48.9924,48.9924 -27.05776,0 -48.9924,-21.93464 -48.9924,-48.9924 0,-27.05775 21.93464,-48.99239 48.9924,-48.99239 27.05775,0 48.9924,21.93464 48.9924,48.99239 z" />
    <path
       transform="matrix(0.49515897,0,0,0.49515897,91.978995,567.94499)"
       sodipodi:type="arc"
       style="fill:#ffaaaa;fill-rule:evenodd;stroke:#000000;stroke-width:1px;stroke-linecap:butt;stroke-linejoin:miter;stroke-opacity:1"
       id="path2985-2-8-9-4-7-4-0-6-2"
       sodipodi:cx="177.28177"
       sodipodi:cy="361.92291"
       sodipodi:rx="48.992397"
       sodipodi:ry="48.992397"
       d="m 226.27417,361.92291 c 0,27.05776 -21.93465,48.9924 -48.9924,48.9924 -27.05776,0 -48.9924,-21.93464 -48.9924,-48.9924 0,-27.05775 21.93464,-48.99239 48.9924,-48.99239 27.05775,0 48.9924,21.93464 48.9924,48.99239 z" />
    <path
       transform="matrix(0.49515897,0,0,0.49515897,233.84428,324.79202)"
       sodipodi:type="arc"
       style="fill:#ffaaaa;fill-rule:evenodd;stroke:#000000;stroke-width:1px;stroke-linecap:butt;stroke-linejoin:miter;stroke-opacity:1"
       id="path2985-2-8-9-4-7-4-0-6-2-6"
       sodipodi:cx="177.28177"
       sodipodi:cy="361.92291"
       sodipodi:rx="48.992397"
       sodipodi:ry="48.992397"
       d="m 226.27417,361.92291 c 0,27.05776 -21.93465,48.9924 -48.9924,48.9924 -27.05776,0 -48.9924,-21.93464 -48.9924,-48.9924 0,-27.05775 21.93464,-48.99239 48.9924,-48.99239 27.05775,0 48.9924,21.93464 48.9924,48.99239 z" />
    <path
       style="fill:#ffffff;stroke:#000000;stroke-width:0.37434018000000002;stroke-linecap:butt;stroke-linejoin:miter;stroke-miterlimit:4;stroke-opacity:1;stroke-dasharray:1.49736073000000003, 0.74868036999999998;stroke-dashoffset:0"
       d="m 297.17828,531.45117 c -10.04435,0.76829 -5.58019,7.6829 -5.58019,7.6829 0,0 3.34812,4.99389 -0.37202,7.29875 -6.50632,4.03111 -1.00872,-9.27052 -7.06825,-4.60974 -6.21885,4.78333 6.32423,5.37803 0.37202,10.75607 -5.3488,4.83282 -4.09216,-8.83534 -8.1843,-4.99389 -5.22283,4.90287 5.20819,4.60974 2.23208,9.98778 -3.7645,6.80272 -4.19887,-7.13536 -9.67234,-3.84146 -7.62169,4.58669 3.72013,8.83534 2.60409,10.75606 -5.38985,9.27604 -6.69624,-5.76217 -9.67234,-3.4573 -7.07412,5.47862 7.06825,13.82922 -1.11604,10.75606"
       id="path3275"
       inkscape:connector-curvature="0"
       sodipodi:nodetypes="ccssssssssc" />
  </g>
</svg>
